<svg width="70" height="70" viewBox="0 0 70 70" fill="none" xmlns="http://www.w3.org/2000/svg">
<path d="M23.7229 35.6696C23.7229 34.2157 22.7128 33.3472 20.9318 33.3472C20.2049 33.3472 19.7133 33.418 19.455 33.4868V38.1565C19.7611 38.2253 20.136 38.2502 20.6506 38.2502C22.5502 38.2502 23.7229 37.288 23.7229 35.6696Z" fill="#ED4C5C"/>
<path d="M34.7532 33.3931C33.9555 33.3931 33.439 33.4639 33.1329 33.5346V43.8801C33.439 43.9509 33.9306 43.9509 34.3764 43.9509C37.6132 43.9739 39.7251 42.1909 39.7251 38.4147C39.75 35.1301 37.8255 33.3931 34.7532 33.3931Z" fill="#ED4C5C"/>
<path d="M55.8861 27.3155H54.5891V21.0581C54.588 21.0184 54.5842 20.9787 54.5776 20.9395C54.5797 20.6878 54.4907 20.4439 54.327 20.2527L43.9146 8.36156L43.9069 8.3539C43.7747 8.21041 43.6061 8.10532 43.4191 8.04974L43.3617 8.03061C43.2822 8.01079 43.2007 8.00052 43.1187 8H17.5286C16.3598 8 15.4109 8.95076 15.4109 10.1177V27.3155H14.1139C12.442 27.3155 11.0876 28.6699 11.0876 30.3419V46.082C11.0876 47.752 12.4439 49.1084 14.1139 49.1084H15.4109V59.8843C15.4109 61.0512 16.3598 62.002 17.5286 62.002H52.4714C53.6383 62.002 54.5891 61.0512 54.5891 59.8843V49.1084H55.8861C57.558 49.1084 58.9124 47.752 58.9124 46.082V30.3419C58.9124 28.6699 57.5561 27.3155 55.8861 27.3155ZM17.5286 10.1177H42.059V20.9529C42.059 21.5383 42.5334 22.0108 43.1187 22.0108H52.4733V27.3155H17.5286V10.1177ZM43.5262 38.2961C43.5262 41.3225 42.4243 43.4115 40.8958 44.7008C39.2315 46.0839 36.6987 46.742 33.6016 46.742C31.7479 46.742 30.4356 46.6234 29.5422 46.5086V30.977C30.8564 30.7666 32.5686 30.6499 34.3764 30.6499C37.3778 30.6499 39.3253 31.1893 40.8499 32.339C42.4932 33.5576 43.5262 35.505 43.5262 38.2961ZM15.9102 46.5794V30.977C17.0121 30.7895 18.5616 30.6499 20.7424 30.6499C22.9481 30.6499 24.5206 31.0726 25.5747 31.9163C26.5828 32.714 27.2619 34.0282 27.2619 35.5758C27.2619 37.1254 26.7473 38.4377 25.8081 39.3291C24.5876 40.4788 22.7817 40.9953 20.6697 40.9953C20.2011 40.9953 19.7783 40.9724 19.4512 40.9246V46.5794H15.9102ZM52.4714 59.3104H17.5286V49.1084H52.4714V59.3104ZM55.5398 33.6992H49.4622V37.3128H55.14V40.2225H49.4622V46.5794H45.8754V30.7666H55.5398V33.6992Z" fill="#ED4C5C"/>
</svg>
