<svg width="26" height="19" viewBox="0 0 26 19" fill="none" xmlns="http://www.w3.org/2000/svg">
<path d="M20.605 8.05005C20.605 7.61505 20.75 7.18005 20.75 6.60005C20.75 3.41005 18.14 0.800049 14.95 0.800049C12.63 0.800049 10.745 2.10505 9.73001 3.99005C9.44001 3.84505 8.86001 3.70005 8.42501 3.70005C6.39501 3.70005 4.80001 5.29505 4.80001 7.32505C4.80001 7.61505 4.80001 7.90505 4.94501 8.05005C2.33501 8.48505 0.450012 10.515 0.450012 13.125C0.450012 15.88 2.77001 18.2 5.52501 18.2H20.025C22.78 18.2 25.1 15.88 25.1 13.125C25.1 10.515 23.215 8.34005 20.605 8.05005Z" fill="white"/>
</svg>
