<?xml version="1.0" encoding="utf-8"?><svg width="32" height="32" fill="none" xmlns="http://www.w3.org/2000/svg" viewBox="0 0 32 32"><path d="M16 2C8.266 2 2 8.266 2 16s6.266 14 14 14 14-6.266 14-14S23.734 2 16 2zm-5.313 20.118a.967.967 0 01-.84.478.932.932 0 01-.492-.135.968.968 0 01-.35-1.325l.956-1.59a.545.545 0 01.47-.268h.142c.693 0 1.178.417 1.32.82l-1.206 2.02zm8.091-3.125L12.52 19H8.36a.966.966 0 01-.969-1.01c.02-.524.478-.922 1-.922h3.015l3.575-6.084-1.158-1.972c-.26-.45-.145-1.042.302-1.325a.973.973 0 011.367.324l.619 1.057h.006l.62-1.057a.974.974 0 011.363-.323c.444.282.559.875.296 1.326l-1.157 1.972-1.125 1.918-2.443 4.166v.007h3.6c.451 0 1.017.242 1.246.632l.02.041c.202.343.316.579.316.922a.864.864 0 01-.073.323l-.002-.002zm4.86.007h-1.695v.007l1.239 2.107a.988.988 0 01-.323 1.345.97.97 0 01-.989.015.98.98 0 01-.358-.349l-1.83-3.116-1.138-1.938-1.467-2.509a2.396 2.396 0 01-.04-2.374c.29-.512.511-.647.511-.647l3.265 5.521h2.806c.525 0 .976.404 1 .922A.98.98 0 0123.64 19h-.002z" fill="#fff"/></svg>