<?xml version="1.0" encoding="utf-8"?><svg width="80" height="80" fill="none" xmlns="http://www.w3.org/2000/svg" viewBox="0 0 80 80"><path d="M48.75 55.18h-5.79V36.25a.627.627 0 00-.624-.625h-4.688a.627.627 0 00-.625.625v18.93H31.25a.623.623 0 00-.492 1.008l8.75 11.07a.627.627 0 00.984 0l8.75-11.07a.623.623 0 00-.492-1.008z" fill="#ED4C5C"/><path d="M63.39 28.648C59.813 19.211 50.696 12.5 40.017 12.5c-10.68 0-19.797 6.703-23.375 16.14C9.945 30.399 5 36.5 5 43.75c0 8.633 6.992 15.625 15.617 15.625h3.133a.627.627 0 00.625-.625v-4.688a.627.627 0 00-.625-.624h-3.133a9.63 9.63 0 01-6.953-2.946 9.683 9.683 0 01-2.726-7.078c.07-2.062.773-4 2.046-5.633a9.79 9.79 0 015.164-3.414l2.961-.773 1.086-2.86a18.788 18.788 0 012.79-4.953 19.19 19.19 0 014.093-3.898 18.916 18.916 0 0110.938-3.453c3.945 0 7.726 1.195 10.937 3.453a19.201 19.201 0 014.094 3.898 18.909 18.909 0 012.789 4.953l1.078 2.852 2.953.781a9.732 9.732 0 017.196 9.383 9.633 9.633 0 01-2.836 6.852 9.617 9.617 0 01-6.844 2.836H56.25a.627.627 0 00-.625.624v4.688c0 .344.281.625.625.625h3.133C68.008 59.375 75 52.383 75 43.75c0-7.242-4.93-13.336-11.61-15.102z" fill="#ED4C5C"/></svg>