<?xml version="1.0" encoding="utf-8"?><svg width="70" height="70" fill="none" xmlns="http://www.w3.org/2000/svg" viewBox="0 0 70 70"><path d="M23.723 35.67c0-1.454-1.01-2.323-2.791-2.323-.727 0-1.219.071-1.477.14v4.67c.306.068.681.093 1.196.093 1.9 0 3.072-.962 3.072-2.58zM34.753 33.393c-.797 0-1.314.07-1.62.142V43.88c.306.07.798.07 1.243.07 3.237.024 5.35-1.76 5.35-5.535.024-3.285-1.9-5.022-4.973-5.022z" fill="#ED4C5C"/><path d="M55.886 27.316H54.59v-6.258a.858.858 0 00-.011-.119 1.043 1.043 0 00-.251-.686L43.915 8.362l-.008-.008a1.083 1.083 0 00-.488-.304l-.057-.02c-.08-.02-.161-.03-.243-.03h-25.59a2.12 2.12 0 00-2.118 2.118v17.197h-1.297a3.026 3.026 0 00-3.026 3.027v15.74a3.028 3.028 0 003.026 3.026h1.297v10.776a2.12 2.12 0 002.118 2.118H52.47c1.167 0 2.118-.95 2.118-2.118V49.108h1.297a3.027 3.027 0 003.026-3.026v-15.74a3.027 3.027 0 00-3.026-3.026zM17.53 10.117h24.53v10.835c0 .585.474 1.058 1.06 1.058h9.354v5.305H17.53V10.117zm25.997 28.178c0 3.026-1.102 5.115-2.63 6.405-1.665 1.383-4.197 2.041-7.294 2.041-1.854 0-3.166-.119-4.06-.233V30.977c1.314-.21 3.027-.327 4.834-.327 3.002 0 4.95.54 6.474 1.689 1.643 1.219 2.676 3.166 2.676 5.957zM15.91 46.58V30.977c1.102-.188 2.652-.327 4.832-.327 2.206 0 3.779.423 4.833 1.266 1.008.798 1.687 2.112 1.687 3.66 0 1.55-.515 2.862-1.454 3.753-1.22 1.15-3.026 1.666-5.138 1.666-.469 0-.892-.023-1.219-.07v5.654h-3.54zM52.471 59.31H17.53V49.108H52.47V59.31zM55.54 33.7h-6.078v3.613h5.678v2.91h-5.678v6.356h-3.587V30.767h9.665v2.932z" fill="#ED4C5C"/></svg>