<?xml version="1.0" encoding="utf-8"?><svg width="32" height="32" fill="none" xmlns="http://www.w3.org/2000/svg" viewBox="0 0 32 32"><path d="M3 3.718v24.563a.27.27 0 00.46.192L16.25 16 3.46 3.526a.27.27 0 00-.46.192zM21.613 10.875L5.576 2.04l-.01-.006c-.276-.15-.538.224-.312.442l12.57 12.02 3.788-3.621zM5.255 29.524c-.228.218.035.592.312.442l.01-.006 16.035-8.835-3.788-3.622L5.255 29.524zM28.086 14.438l-4.478-2.467L19.398 16l4.21 4.027 4.478-2.465c1.218-.673 1.218-2.451 0-3.125z" fill="#fff"/></svg>