<?xml version="1.0" encoding="utf-8"?><svg width="66" height="66" fill="none" xmlns="http://www.w3.org/2000/svg" viewBox="0 0 66 66"><path fill-rule="evenodd" clip-rule="evenodd" d="M33.973 3.487l21.901 7.464c.535.186.974.799.96 1.366v31.092c0 .574-.367 1.322-.811 1.67L33.806 62.39a1.32 1.32 0 01-.812.264c-.297 0-.587-.09-.813-.264L9.964 45.078c-.444-.354-.812-1.102-.812-1.669V12.317c0-.567.439-1.186.974-1.366l21.9-7.464c.265-.09.62-.135.974-.135.355 0 .709.045.973.135zM33 57.137l19.207-14.965v-27.56L33 8.063l-19.207 6.548v27.56L33 57.139z" fill="#ED4C5C"/><path fill-rule="evenodd" clip-rule="evenodd" d="M25.968 34.083l-4.995 4.995a.518.518 0 000 .728l2.192 2.192c.2.2.528.2.728 0l4.995-4.995a9.287 9.287 0 0011.511-1.296 9.286 9.286 0 000-13.136 9.286 9.286 0 00-13.135 0 9.288 9.288 0 00-1.296 11.512zM37.48 25.49a5.16 5.16 0 00-7.296 7.296 5.154 5.154 0 007.296 0 5.154 5.154 0 000-7.296z" fill="#ED4C5C"/></svg>