<svg width="80" height="80" viewBox="0 0 80 80" fill="none" xmlns="http://www.w3.org/2000/svg">
<path d="M48.75 55.1797H42.9609V36.25C42.9609 35.9063 42.6797 35.625 42.3359 35.625H37.6484C37.3047 35.625 37.0234 35.9063 37.0234 36.25V55.1797H31.25C30.7265 55.1797 30.4375 55.7813 30.7578 56.1875L39.5078 67.2578C39.5663 67.3325 39.641 67.3929 39.7262 67.4345C39.8115 67.476 39.9051 67.4976 40 67.4976C40.0948 67.4976 40.1885 67.476 40.2737 67.4345C40.359 67.3929 40.4337 67.3325 40.4922 67.2578L49.2422 56.1875C49.5625 55.7813 49.2734 55.1797 48.75 55.1797Z" fill="#ED4C5C"/>
<path d="M63.3906 28.6484C59.8125 19.2109 50.6953 12.5 40.0156 12.5C29.3359 12.5 20.2188 19.2031 16.6406 28.6406C9.94531 30.3984 5 36.5 5 43.75C5 52.3828 11.9922 59.375 20.6172 59.375H23.75C24.0938 59.375 24.375 59.0938 24.375 58.75V54.0625C24.375 53.7188 24.0938 53.4375 23.75 53.4375H20.6172C17.9844 53.4375 15.5078 52.3906 13.6641 50.4922C11.8281 48.6016 10.8516 46.0547 10.9375 43.4141C11.0078 41.3516 11.7109 39.4141 12.9844 37.7812C14.2891 36.1172 16.1172 34.9062 18.1484 34.3672L21.1094 33.5938L22.1953 30.7344C22.8672 28.9531 23.8047 27.2891 24.9844 25.7812C26.149 24.2868 27.5286 22.973 29.0781 21.8828C32.2891 19.625 36.0703 18.4297 40.0156 18.4297C43.9609 18.4297 47.7422 19.625 50.9531 21.8828C52.5078 22.9766 53.8828 24.2891 55.0469 25.7812C56.2266 27.2891 57.1641 28.9609 57.8359 30.7344L58.9141 33.5859L61.8672 34.3672C66.1016 35.5078 69.0625 39.3594 69.0625 43.75C69.0625 46.3359 68.0547 48.7734 66.2266 50.6016C65.33 51.5033 64.2635 52.2183 63.0888 52.7051C61.914 53.1919 60.6544 53.4408 59.3828 53.4375H56.25C55.9062 53.4375 55.625 53.7188 55.625 54.0625V58.75C55.625 59.0938 55.9062 59.375 56.25 59.375H59.3828C68.0078 59.375 75 52.3828 75 43.75C75 36.5078 70.0703 30.4141 63.3906 28.6484Z" fill="#ED4C5C"/>
</svg>
