<svg width="14" height="14" viewBox="0 0 14 14" fill="none" xmlns="http://www.w3.org/2000/svg">
<path d="M9.33334 4.66663C10.2616 4.66663 11.1518 5.03538 11.8082 5.69175C12.4646 6.34813 12.8333 7.23837 12.8333 8.16663V12.25H10.5V8.16663C10.5 7.85721 10.3771 7.56046 10.1583 7.34167C9.9395 7.12288 9.64276 6.99996 9.33334 6.99996C9.02392 6.99996 8.72717 7.12288 8.50838 7.34167C8.28959 7.56046 8.16667 7.85721 8.16667 8.16663V12.25H5.83334V8.16663C5.83334 7.23837 6.20208 6.34813 6.85846 5.69175C7.51484 5.03538 8.40508 4.66663 9.33334 4.66663Z" fill="#101010"/>
<path d="M1.16667 5.25H3.5V12.25H1.16667V5.25Z" fill="#101010"/>
<path d="M2.33333 3.49996C2.97767 3.49996 3.5 2.97763 3.5 2.33329C3.5 1.68896 2.97767 1.16663 2.33333 1.16663C1.689 1.16663 1.16667 1.68896 1.16667 2.33329C1.16667 2.97763 1.689 3.49996 2.33333 3.49996Z" fill="#101010"/>
</svg>
