<svg height="512pt" viewBox="0 0 512 512.02314" width="512pt" xmlns="http://www.w3.org/2000/svg"><path d="m452.277344 298.691406h34.132812v145.066406h-34.132812zm0 0" fill="#ced7db"/><path d="m503.476562 256.023438v25.597656l-17.066406 59.734375h-34.132812l-17.066406-59.734375v-25.597656zm0 0" fill="#607d8a"/><path d="m477.878906 256.023438v25.597656l-17.066406 59.734375h-8.535156l-17.066406-59.734375v-25.597656zm0 0" fill="#ced7db"/><path d="m401.078125 59.757812v256c0 18.851563-15.28125 34.132813-34.132813 34.132813l-23.980468-.085937-308.820313-1.023438c-15.074219-3.867188-25.613281-17.460938-25.601562-33.023438v-256zm0 0" fill="#9d9d9d"/><path d="m375.476562 59.757812v256c.039063 18.226563-14.300781 33.242188-32.511718 34.046876l-308.820313-1.023438c-15.074219-3.867188-25.613281-17.460938-25.601562-33.023438v-256zm0 0" fill="#ced7db"/><path d="m401.078125 42.691406v34.132813h-392.535156v-34.132813c0-18.851562 15.285156-34.136718 34.136719-34.136718h324.265624c18.851563 0 34.132813 15.285156 34.132813 34.136718zm0 0" fill="#00828e"/><path d="m375.476562 42.691406v34.132813h-366.933593v-34.132813c0-18.851562 15.285156-34.136718 34.136719-34.136718h298.664062c18.851562 0 34.132812 15.285156 34.132812 34.136718zm0 0" fill="#00bbd3"/><path d="m59.746094 42.691406c0 4.710938-3.820313 8.53125-8.535156 8.53125-4.710938 0-8.53125-3.820312-8.53125-8.53125 0-4.714844 3.820312-8.535156 8.53125-8.535156 4.714843 0 8.535156 3.820312 8.535156 8.535156zm0 0" fill="#e64c3c"/><path d="m93.878906 42.691406c0 4.710938-3.820312 8.53125-8.535156 8.53125-4.710938 0-8.53125-3.820312-8.53125-8.53125 0-4.714844 3.820312-8.535156 8.53125-8.535156 4.714844 0 8.535156 3.820312 8.535156 8.535156zm0 0" fill="#f0c419"/><path d="m128.011719 42.691406c0 4.710938-3.820313 8.53125-8.535157 8.53125-4.710937 0-8.53125-3.820312-8.53125-8.53125 0-4.714844 3.820313-8.535156 8.53125-8.535156 4.714844 0 8.535157 3.820312 8.535157 8.535156zm0 0" fill="#14a085"/><path d="m366.945312 42.691406c0 4.710938-3.820312 8.53125-8.535156 8.53125-4.710937 0-8.53125-3.820312-8.53125-8.53125 0-4.714844 3.820313-8.535156 8.53125-8.535156 4.714844 0 8.535156 3.820312 8.535156 8.535156zm0 0" fill="#955ba5"/><path d="m51.210938 110.957031h307.199218c4.714844 0 8.535156 3.820313 8.535156 8.53125v85.335938c0 4.710937-3.820312 8.53125-8.535156 8.53125h-307.199218c-4.710938 0-8.53125-3.820313-8.53125-8.53125v-85.335938c0-4.710937 3.820312-8.53125 8.53125-8.53125zm0 0" fill="#c42828"/><path d="m341.34375 119.488281v85.335938c-.023438 4.539062-3.574219 8.273437-8.105469 8.53125h-282.027343c-4.710938 0-8.53125-3.820313-8.53125-8.53125v-85.335938c0-4.710937 3.820312-8.53125 8.53125-8.53125h281.601562c4.710938 0 8.53125 3.820313 8.53125 8.53125zm0 0" fill="#f34335"/><path d="m208.308594 196.800781c4.183594-.339843 8.449218-.511719 12.714844-.511719 66.125.101563 124.675781 42.742188 145.066406 105.644532 1.695312 5.195312.800781 10.886718-2.40625 15.308594-3.210938 4.421874-8.339844 7.042968-13.804688 7.046874h-2.304687c-5.132813.019532-10.246094-.667968-15.1875-2.046874 7.222656-3.949219 10.625-12.472657 8.105469-20.308594-18.96875-58.398438-71.015626-99.792969-132.183594-105.132813zm0 0" fill="#4e342e"/><path d="m366.089844 397.847656c-21.847656 67.394532-87.167969 110.917969-157.78125 105.128906 61.167968-5.339843 113.214844-46.734374 132.183594-105.128906 2.53125-7.882812-.957032-16.445312-8.277344-20.308594 4.972656-1.375 10.113281-2.0625 15.273437-2.050781h2.390625c5.464844.003907 10.59375 2.625 13.804688 7.046875 3.207031 4.425782 4.101562 10.117188 2.40625 15.3125zm0 0" fill="#4e342e"/><path d="m340.492188 397.847656c-18.96875 58.394532-71.015626 99.789063-132.183594 105.128906-.683594-.011718-1.367188-.070312-2.046875-.167968-78.816407-8.0625-138.589844-74.710938-138.0625-153.933594.53125-79.226562 61.195312-145.070312 140.109375-152.074219 61.167968 5.339844 113.214844 46.734375 132.183594 105.132813 2.519531 7.835937-.882813 16.359375-8.105469 20.308594-7.394531-2.039063-14.460938-5.113282-20.992188-9.132813-9.058593-5.382813-19.808593-7.179687-30.125-5.035156-1.414062.28125-2.8125.652343-4.179687 1.109375-20.097656 6.316406-32.578125 26.359375-29.382813 47.179687 3.199219 20.824219 21.113281 36.195313 42.183594 36.191407 7.734375.023437 15.328125-2.105469 21.929687-6.140626 6.3125-3.96875 13.1875-6.960937 20.394532-8.875 7.320312 3.863282 10.808594 12.425782 8.277344 20.308594zm0 0" fill="#795548"/><path d="m146.757812 349.890625c0 11.78125-9.550781 21.332031-21.332031 21.332031s-21.332031-9.550781-21.332031-21.332031 9.550781-21.335937 21.332031-21.335937 21.332031 9.554687 21.332031 21.335937zm0 0" fill="#ffea3a"/><path d="m180.894531 422.421875c0 11.78125-9.554687 21.335937-21.335937 21.335937s-21.332032-9.554687-21.332032-21.335937 9.550782-21.332031 21.332032-21.332031 21.335937 9.550781 21.335937 21.332031zm0 0" fill="#4cae50"/><path d="m257.691406 448.023438c0 11.78125-9.550781 21.332031-21.332031 21.332031s-21.332031-9.550781-21.332031-21.332031 9.550781-21.332032 21.332031-21.332032 21.332031 9.550782 21.332031 21.332032zm0 0" fill="#fff"/><path d="m180.894531 277.355469c0 11.78125-9.554687 21.335937-21.335937 21.335937s-21.332032-9.554687-21.332032-21.335937 9.550782-21.332031 21.332032-21.332031 21.335937 9.550781 21.335937 21.332031zm0 0" fill="#f34335"/><path d="m257.691406 251.757812c0 11.78125-9.550781 21.332032-21.332031 21.332032s-21.332031-9.550782-21.332031-21.332032c0-11.785156 9.550781-21.335937 21.332031-21.335937s21.332031 9.550781 21.332031 21.335937zm0 0" fill="#0377bb"/><path d="m503.476562 82.539062v199.082032h-68.265624v-199.082032c.101562-17.972656 4.867187-35.613281 13.824218-51.199218l7.507813-13.398438 2.304687-4.09375c2.453125-3.34375 6.351563-5.316406 10.496094-5.316406s8.042969 1.972656 10.496094 5.316406l9.8125 17.492188c8.960937 15.585937 13.722656 33.226562 13.824218 51.199218zm0 0" fill="#4e342e"/><path d="m477.878906 82.539062v199.082032h-42.667968v-199.082032c.101562-17.972656 4.867187-35.613281 13.824218-51.199218l7.507813-13.398438 7.511719 13.398438c8.957031 15.585937 13.722656 33.226562 13.824218 51.199218zm0 0" fill="#795548"/><path d="m502.285156 503.488281c-12.4375-4.554687-24.25-10.660156-35.160156-18.175781-14.421875-10.152344-28.5-24.574219-31.230469-43.261719-4.777343-33.28125 17.066407-39.511719 25.34375-40.707031 1.046875-.144531 2.101563-.230469 3.15625-.253906h22.1875c25.769531 23.296875 17.152344 37.203125 6.230469 51.199218-13.652344 17.410157 9.472656 51.199219 9.472656 51.199219zm0 0" fill="#424242"/><path d="m467.210938 452.289062c-6.996094 8.960938-4.351563 22.273438-.085938 33.023438-14.421875-10.152344-28.5-24.574219-31.230469-43.261719-4.777343-33.28125 17.066407-39.511719 25.34375-40.707031 25.429688 23.128906 16.894531 37.035156 5.972657 50.945312zm0 0" fill="#9d9d9d"/><path d="m469.34375 128.023438c-4.710938 0-8.53125 3.820312-8.53125 8.53125v93.867187c0 4.714844 3.820312 8.535156 8.53125 8.535156 4.714844 0 8.535156-3.820312 8.535156-8.535156v-93.867187c0-4.710938-3.820312-8.53125-8.535156-8.53125zm0 0" fill="#805333"/><path d="m469.34375 85.355469c-4.710938 0-8.53125 3.820312-8.53125 8.535156v8.53125c0 4.714844 3.820312 8.535156 8.53125 8.535156 4.714844 0 8.535156-3.820312 8.535156-8.535156v-8.53125c0-4.714844-3.820312-8.535156-8.535156-8.535156zm0 0" fill="#805333"/><path d="m59.746094 42.664062c0 4.710938-3.820313 8.53125-8.535156 8.53125-4.710938 0-8.53125-3.820312-8.53125-8.53125 0-4.714843 3.820312-8.535156 8.53125-8.535156 4.714843 0 8.535156 3.820313 8.535156 8.535156zm0 0"/><path d="m93.878906 42.664062c0 4.710938-3.820312 8.53125-8.535156 8.53125-4.710938 0-8.53125-3.820312-8.53125-8.53125 0-4.714843 3.820312-8.535156 8.53125-8.535156 4.714844 0 8.535156 3.820313 8.535156 8.535156zm0 0"/><path d="m128.011719 42.664062c0 4.710938-3.820313 8.53125-8.535157 8.53125-4.710937 0-8.53125-3.820312-8.53125-8.53125 0-4.714843 3.820313-8.535156 8.53125-8.535156 4.714844 0 8.535157 3.820313 8.535157 8.535156zm0 0"/><path d="m366.945312 42.664062c0 4.710938-3.820312 8.53125-8.535156 8.53125-4.710937 0-8.53125-3.820312-8.53125-8.53125 0-4.714843 3.820313-8.535156 8.53125-8.535156 4.714844 0 8.535156 3.820313 8.535156 8.535156zm0 0"/><path d="m205.441406 511.261719c5.242188.507812 10.433594.761719 15.582032.761719 69.914062.128906 131.875-45 153.199218-111.582032 2.566406-7.785156 1.207032-16.332031-3.652344-22.9375-4.8125-6.625-12.503906-10.542968-20.691406-10.546875h-2.382812c-14.242188.210938-28.140625 4.425781-40.105469 12.160157-14.332031 8.699218-32.878906 5.539062-43.519531-7.417969-7.617188-9.195313-9.882813-21.699219-5.976563-32.984375 3.902344-11.285156 13.410157-19.71875 25.082031-22.242188 8.25-1.765625 16.859376-.339844 24.097657 3.992188 12.085937 7.785156 26.09375 12.0625 40.464843 12.359375h2.339844c8.199219-.003907 15.902344-3.9375 20.714844-10.578125s6.152344-15.183594 3.605469-22.976563c-17.683594-54.871093-63.378907-96.085937-119.777344-108.03125-56.398437-11.949219-114.878906 7.199219-153.289063 50.191407-30.859374 34.660156-45.535156 80.800781-40.371093 126.917968 8.472656 75.804688 68.777343 135.375 144.679687 142.914063zm-91.578125-258.464844c34.335938-38.4375 86.625-55.558594 137.046875-44.871094s91.265625 47.546875 107.058594 96.609375c.863281 2.601563.425781 5.457032-1.175781 7.679688-1.605469 2.21875-4.175781 3.539062-6.914063 3.542968h-2.347656c-11.320312-.296874-22.332031-3.761718-31.785156-10.003906-14.222656-8.414062-31.648438-9.398437-46.726563-2.636718-15.078125 6.761718-25.933593 20.425781-29.109375 36.644531-2.988281 15.152343.960938 30.84375 10.769532 42.777343 16.054687 19.5 44.007812 24.226563 65.585937 11.09375 9.292969-6.105468 20.132813-9.4375 31.25-9.609374h2.363281c2.722656.007812 5.28125 1.320312 6.878906 3.523437 1.601563 2.207031 2.050782 5.046875 1.210938 7.636719-18.589844 55.703125-69.066406 94.59375-127.667969 98.359375-58.597656 3.769531-113.640625-28.335938-139.210937-81.199219-25.566406-52.863281-16.5625-115.945312 22.773437-159.546875zm0 0"/><path d="m125.453125 379.757812c16.492187 0 29.863281-13.375 29.863281-29.867187 0-16.496094-13.371094-29.867187-29.863281-29.867187-16.496094 0-29.867187 13.371093-29.867187 29.867187 0 16.492187 13.371093 29.867187 29.867187 29.867187zm0-42.667968c7.066406 0 12.796875 5.730468 12.796875 12.800781 0 7.066406-5.730469 12.800781-12.796875 12.800781-7.070313 0-12.800781-5.734375-12.800781-12.800781 0-7.070313 5.730468-12.800781 12.800781-12.800781zm0 0"/><path d="m138.4375 401.277344c-11.660156 11.664062-11.660156 30.574218.003906 42.238281 11.664063 11.660156 30.574219 11.660156 42.238282 0 11.660156-11.664063 11.664062-30.574219 0-42.238281-11.679688-11.632813-30.5625-11.632813-42.242188 0zm30.175781 30.183594c-5 4.996093-13.101562 4.992187-18.101562-.003907-4.996094-5-4.996094-13.101562 0-18.101562 5-5 13.101562-5 18.101562-.003907 2.402344 2.402344 3.75 5.65625 3.75 9.054688 0 3.394531-1.347656 6.652344-3.75 9.054688zm0 0"/><path d="m236.386719 477.890625c16.492187 0 29.863281-13.371094 29.863281-29.867187 0-16.496094-13.371094-29.867188-29.863281-29.867188-16.496094 0-29.867188 13.371094-29.867188 29.867188 0 16.496093 13.371094 29.867187 29.867188 29.867187zm0-42.667969c7.066406 0 12.796875 5.730469 12.796875 12.800782 0 7.070312-5.730469 12.800781-12.796875 12.800781-7.070313 0-12.800781-5.730469-12.800781-12.800781 0-3.394532 1.347656-6.652344 3.746093-9.050782 2.402344-2.402344 5.65625-3.75 9.054688-3.75zm0 0"/><path d="m159.585938 307.179688c14.25-.007813 26.507812-10.085938 29.277343-24.0625 2.769531-13.980469-4.722656-27.96875-17.894531-33.40625-13.171875-5.441407-28.351562-.820313-36.253906 11.035156-7.90625 11.859375-6.332032 27.648437 3.757812 37.714844 5.605469 5.585937 13.199219 8.722656 21.113282 8.71875zm-9.046876-38.894532c5-4.996094 13.101563-4.996094 18.101563.003906 4.996094 5 4.996094 13.101563 0 18.101563-5 4.996094-13.101563 5-18.101563.003906-2.40625-2.398437-3.761718-5.652343-3.769531-9.046875-.003906-3.398437 1.339844-6.65625 3.734375-9.0625zm0 0"/><path d="m236.386719 281.621094c16.492187 0 29.863281-13.371094 29.863281-29.863282 0-16.496093-13.371094-29.867187-29.863281-29.867187-16.496094 0-29.867188 13.371094-29.867188 29.867187 0 16.492188 13.371094 29.863282 29.867188 29.863282zm0-42.664063c7.066406 0 12.796875 5.730469 12.796875 12.800781 0 7.066407-5.730469 12.796876-12.796875 12.796876-7.070313 0-12.800781-5.730469-12.800781-12.796876 0-3.394531 1.347656-6.652343 3.746093-9.050781 2.402344-2.402343 5.65625-3.75 9.054688-3.75zm0 0"/><path d="m32.019531 357.058594c2.953125.761718 6.089844-.109375 8.226563-2.289063 2.140625-2.175781 2.953125-5.328125 2.136718-8.269531-.820312-2.9375-3.140624-5.21875-6.097656-5.980469-11.296875-2.914062-19.195312-13.097656-19.207031-24.761719v-230.402343h375.464844v230.402343c0 14.136719-11.460938 25.597657-25.597657 25.597657-4.714843 0-8.535156 3.820312-8.535156 8.535156 0 4.710937 3.820313 8.53125 8.535156 8.53125 23.550782-.027344 42.636719-19.113281 42.667969-42.664063v-273.066406c-.03125-23.554687-19.117187-42.6406248-42.667969-42.6679685h-324.265624c-23.554688.0273437-42.6406255 19.1132815-42.6679692 42.6679685v273.066406c.0039062 19.453126 13.1718752 36.441407 32.0078122 41.300782zm10.660157-339.96875h324.265624c14.136719 0 25.597657 11.460937 25.597657 25.601562v25.597656h-375.464844v-25.597656c0-14.140625 11.460937-25.601562 25.601563-25.601562zm0 0"/><path d="m494.945312 397.25v-54.714844l16.742188-58.601562c.0625-.394532.09375-.792969.09375-1.191406.101562-.367188.179688-.742188.230469-1.121094v-199.0625c-.0625-19.449219-5.199219-38.542969-14.898438-55.398438l-9.847656-17.554687c-3.980469-6-10.699219-9.605469-17.898437-9.605469-7.199219 0-13.921876 3.605469-17.898438 9.605469l-9.890625 17.554687c-9.703125 16.855469-14.835937 35.949219-14.898437 55.398438v199.0625c.050781.386718.125.769531.230468 1.144531 0 .402344.03125.800781.09375 1.195313l16.742188 58.574218v56.320313c-2.941406 1.796875-5.59375 4.03125-7.867188 6.621093-8.304687 10.714844-11.394531 24.574219-8.425781 37.800782 6.605469 45.621094 69.4375 67.414062 72.109375 68.269531 3.476562 1.175781 7.320312 0 9.539062-2.929687 2.21875-2.929688 2.3125-6.953126.230469-9.984376-6.398437-9.324218-17.230469-31.640624-9.804687-41.105468 12.109375-15.425782 22.484375-34.054688-4.582032-60.277344zm-48.417968-107.09375h45.636718l-12.1875 42.667969h-21.265624zm-2.78125-207.597656c.074218-16.515625 4.453125-32.726563 12.695312-47.035156l9.882813-17.582032c1.828125-1.214844 4.210937-1.214844 6.042969 0l9.878906 17.582032c8.246094 14.308593 12.621094 30.519531 12.699218 47.035156v190.53125h-51.199218zm17.066406 309.996094v-42.664063h17.066406v42.664063zm25.285156 54.46875c-8.84375 11.273437-6.828125 26.25-2.382812 38.621093-16.273438-8.992187-36.378906-24.097656-39.382813-44.816406-2.054687-8.277344-.46875-17.042969 4.355469-24.078125 4.136719-4.300781 9.765625-6.851562 15.726562-7.128906h18.773438c18.300781 17.625 11.835938 25.996094 2.910156 37.378906zm0 0"/><path d="m469.34375 128.023438c-4.710938 0-8.53125 3.820312-8.53125 8.53125v93.867187c0 4.714844 3.820312 8.535156 8.53125 8.535156 4.714844 0 8.535156-3.820312 8.535156-8.535156v-93.867187c0-4.710938-3.820312-8.53125-8.535156-8.53125zm0 0"/><path d="m469.34375 85.355469c-4.710938 0-8.53125 3.820312-8.53125 8.535156v8.53125c0 4.714844 3.820312 8.535156 8.53125 8.535156 4.714844 0 8.535156-3.820312 8.535156-8.535156v-8.53125c0-4.714844-3.820312-8.535156-8.535156-8.535156zm0 0"/><path d="m349.878906 204.824219c-4.714844 0-8.535156 3.820312-8.535156 8.53125 0 4.714843 3.820312 8.535156 8.535156 8.535156h8.53125c9.425782 0 17.066406-7.640625 17.066406-17.066406v-85.335938c0-9.425781-7.640624-17.066406-17.066406-17.066406h-307.199218c-9.425782 0-17.066407 7.640625-17.066407 17.066406v85.335938c0 9.425781 7.640625 17.066406 17.066407 17.066406h42.667968c4.710938 0 8.53125-3.820313 8.53125-8.535156 0-4.710938-3.820312-8.53125-8.53125-8.53125h-42.667968v-85.335938h307.199218v85.335938zm0 0"/></svg>