<svg height="512.00003pt" viewBox="0 0 512.00003 512.00003" width="512.00003pt" xmlns="http://www.w3.org/2000/svg"><path d="m486.398438 42.667969v273.066406h-460.796876v-273.066406c0-18.851563 15.28125-34.132813 34.132813-34.132813h392.53125c5.503906 0 10.921875 1.347656 15.789063 3.921875 5.039062 2.597657 9.347656 6.410157 12.542968 11.09375 3.757813 5.667969 5.777344 12.3125 5.800782 19.117188zm0 0" fill="#9d9d9d"/><path d="m452.265625 42.667969v273.066406h-426.664063v-273.066406c0-18.851563 15.28125-34.132813 34.132813-34.132813h358.398437c5.503907 0 10.921876 1.347656 15.789063 3.921875 5.035156 2.597657 9.347656 6.410157 12.542969 11.09375 3.757812 5.667969 5.777344 12.3125 5.800781 19.117188zm0 0" fill="#ced7db"/><path d="m358.398438 179.199219h119.46875c14.136718 0 25.597656 11.460937 25.597656 25.601562v273.066407c0 14.136718-11.460938 25.597656-25.597656 25.597656h-119.46875c-14.136719 0-25.597657-11.460938-25.597657-25.597656v-273.066407c0-14.140625 11.460938-25.601562 25.597657-25.601562zm0 0" fill="#bdc3c7"/><path d="m349.867188 179.199219h119.464843c14.140625 0 25.601563 11.460937 25.601563 25.601562v273.066407c0 14.136718-11.460938 25.597656-25.601563 25.597656h-119.464843c-14.140626 0-25.601563-11.460938-25.601563-25.597656v-273.066407c0-14.140625 11.460937-25.601562 25.601563-25.601562zm0 0" fill="#37474f"/><path d="m349.867188 179.199219h93.867187c14.136719 0 25.597656 11.460937 25.597656 25.601562v273.066407c0 14.136718-11.460937 25.597656-25.597656 25.597656h-93.867187c-14.140626 0-25.601563-11.460938-25.601563-25.597656v-273.066407c0-14.140625 11.460937-25.601562 25.601563-25.601562zm0 0" fill="#607d8a"/><path d="m230.398438 307.199219h119.46875v76.800781h-119.46875zm0 0" fill="#37474f"/><path d="m443.734375 119.464844c0 28.277344-22.925781 51.203125-51.199219 51.203125-4.320312-.015625-8.617187-.558594-12.800781-1.621094-22.605469-5.816406-38.40625-26.195313-38.40625-49.539063 0-23.339843 15.800781-43.71875 38.40625-49.535156 4.171875-1.132812 8.476563-1.707031 12.800781-1.707031 28.273438 0 51.199219 22.925781 51.199219 51.199219zm0 0" fill="#fdc008"/><path d="m307.199219 119.464844c0 28.277344-22.921875 51.203125-51.199219 51.203125-4.316406-.015625-8.617188-.558594-12.800781-1.621094-22.605469-5.816406-38.40625-26.195313-38.40625-49.539063 0-23.339843 15.800781-43.71875 38.40625-49.535156 4.171875-1.132812 8.476562-1.707031 12.800781-1.707031 28.277344 0 51.199219 22.925781 51.199219 51.199219zm0 0" fill="#fdc008"/><path d="m170.667969 119.464844c0 28.277344-22.925781 51.203125-51.203125 51.203125-4.316406-.015625-8.613282-.558594-12.796875-1.621094-22.605469-5.816406-38.40625-26.195313-38.40625-49.539063 0-23.339843 15.800781-43.71875 38.40625-49.535156 4.171875-1.132812 8.476562-1.707031 12.796875-1.707031 28.277344 0 51.203125 22.925781 51.203125 51.199219zm0 0" fill="#fdc008"/><path d="m230.398438 418.132812h119.46875v34.132813h-119.46875zm0 0" fill="#37474f"/><path d="m230.398438 307.199219h76.800781v76.800781h-76.800781zm0 0" fill="#607d8a"/><path d="m230.398438 418.132812h76.800781v34.132813h-76.800781zm0 0" fill="#607d8a"/><path d="m303.359375 274.515625c-.4375-.335937-.925781-.59375-1.449219-.765625-.511718-.261719-1.0625-.433594-1.628906-.511719-1.09375-.257812-2.230469-.257812-3.320312 0-.535157.09375-1.054688.265625-1.535157.511719-.546875.1875-1.066406.445312-1.546875.765625l-1.269531 1.027344c-1.5625 1.632812-2.445313 3.796875-2.476563 6.058593-.027343 1.117188.203126 2.230469.683594 3.242188 1.230469 3.25 4.375 5.371094 7.851563 5.289062 2.257812-.03125 4.421875-.917968 6.058593-2.472656.769532-.816406 1.378907-1.773437 1.789063-2.816406.4375-1.027344.671875-2.128906.683594-3.242188-.03125-2.261718-.914063-4.425781-2.472657-6.058593-.429687-.34375-.863281-.683594-1.367187-1.027344zm0 0" fill="#e6e7e8"/><path d="m247.464844 221.867188h17.070312c4.710938 0 8.53125-3.820313 8.53125-8.535157 0-4.710937-3.820312-8.53125-8.53125-8.53125h-17.070312c-4.710938 0-8.53125 3.820313-8.53125 8.53125 0 4.714844 3.820312 8.535157 8.53125 8.535157zm0 0" fill="#e6e7e8"/><path d="m298.667969 221.867188h34.132812c4.710938 0 8.53125-3.820313 8.53125-8.535157 0-4.710937-3.820312-8.53125-8.53125-8.53125h-34.132812c-4.714844 0-8.535157 3.820313-8.535157 8.53125 0 4.714844 3.820313 8.535157 8.535157 8.535157zm0 0" fill="#e6e7e8"/><path d="m273.066406 238.933594h-25.601562c-4.710938 0-8.53125 3.820312-8.53125 8.53125 0 4.714844 3.820312 8.535156 8.53125 8.535156h25.601562c4.714844 0 8.535156-3.820312 8.535156-8.535156 0-4.710938-3.820312-8.53125-8.535156-8.53125zm0 0" fill="#e6e7e8"/><path d="m332.800781 238.933594h-25.601562c-4.710938 0-8.53125 3.820312-8.53125 8.53125 0 4.714844 3.820312 8.535156 8.53125 8.535156h25.601562c4.710938 0 8.53125-3.820312 8.53125-8.535156 0-4.710938-3.820312-8.53125-8.53125-8.53125zm0 0" fill="#e6e7e8"/><path d="m264.535156 273.066406h-17.070312c-4.710938 0-8.53125 3.820313-8.53125 8.535156 0 4.710938 3.820312 8.53125 8.53125 8.53125h17.070312c4.710938 0 8.53125-3.820312 8.53125-8.53125 0-4.714843-3.820312-8.535156-8.53125-8.535156zm0 0" fill="#e6e7e8"/><path d="m332.800781 230.398438v221.867187h170.664063v-221.867187zm0 0" fill="#ced7db"/><path d="m366.933594 392.535156h59.734375c4.710937 0 8.53125-3.824218 8.53125-8.535156s-3.820313-8.535156-8.53125-8.535156h-59.734375c-4.714844 0-8.535156 3.824218-8.535156 8.535156s3.820312 8.535156 8.535156 8.535156zm0 0" fill="#e6e7e8"/><path d="m460.800781 392.535156h8.53125c4.714844 0 8.535157-3.824218 8.535157-8.535156s-3.820313-8.535156-8.535157-8.535156h-8.53125c-4.714843 0-8.535156 3.824218-8.535156 8.535156s3.820313 8.535156 8.535156 8.535156zm0 0" fill="#e6e7e8"/><path d="m375.464844 409.601562h-8.53125c-4.714844 0-8.535156 3.820313-8.535156 8.53125 0 4.714844 3.820312 8.535157 8.535156 8.535157h8.53125c4.714844 0 8.535156-3.820313 8.535156-8.535157 0-4.710937-3.820312-8.53125-8.535156-8.53125zm0 0" fill="#e6e7e8"/><path d="m469.332031 426.667969c4.714844 0 8.535157-3.820313 8.535157-8.535157 0-4.710937-3.820313-8.53125-8.535157-8.53125h-59.730469c-4.714843 0-8.535156 3.820313-8.535156 8.53125 0 4.714844 3.820313 8.535157 8.535156 8.535157" fill="#e6e7e8"/><path d="m460.800781 307.199219c.035157 11.328125-4.449219 22.199219-12.460937 30.207031-8.007813 8.011719-18.878906 12.496094-30.207032 12.460938-4.332031-.015626-8.644531-.644532-12.800781-1.878907-14.226562-4.511719-25.078125-16.113281-28.632812-30.609375-3.554688-14.5.699219-29.804687 11.226562-40.386718 4.894531-4.84375 10.855469-8.464844 17.40625-10.582032 4.15625-1.230468 8.46875-1.863281 12.800781-1.875 11.328126-.035156 22.199219 4.449219 30.207032 12.457032 8.011718 8.007812 12.496094 18.882812 12.460937 30.207031zm0 0" fill="#fdc008"/><path d="m426.667969 486.398438v17.066406h-17.066407v-17.066406c0-4.710938 3.820313-8.53125 8.53125-8.53125 4.714844 0 8.535157 3.820312 8.535157 8.53125zm0 0" fill="#7f8c8d"/><path d="m418.132812 119.464844c-.054687 23.332031-15.824218 43.691406-38.398437 49.582031-22.605469-5.816406-38.40625-26.195313-38.40625-49.539063 0-23.339843 15.800781-43.71875 38.40625-49.535156 22.574219 5.828125 38.363281 26.175782 38.398437 49.492188zm0 0" fill="#ffea3a"/><path d="m281.601562 119.464844c-.054687 23.332031-15.828124 43.691406-38.402343 49.582031-22.605469-5.816406-38.40625-26.195313-38.40625-49.539063 0-23.339843 15.800781-43.71875 38.40625-49.535156 22.578125 5.828125 38.363281 26.175782 38.402343 49.492188zm0 0" fill="#ffea3a"/><path d="m145.066406 119.464844c-.054687 23.332031-15.824218 43.691406-38.398437 49.582031-22.605469-5.816406-38.40625-26.195313-38.40625-49.539063 0-23.339843 15.800781-43.71875 38.40625-49.535156 22.574219 5.828125 38.363281 26.175782 38.398437 49.492188zm0 0" fill="#ffea3a"/><path d="m435.199219 307.199219c0 11.320312-4.476563 22.179687-12.457031 30.207031-4.894532 4.84375-10.859376 8.46875-17.410157 10.582031-14.226562-4.511719-25.078125-16.113281-28.632812-30.609375-3.554688-14.5.699219-29.804687 11.226562-40.386718 4.894531-4.84375 10.855469-8.464844 17.40625-10.582032 6.550781 2.117188 12.515625 5.738282 17.410157 10.582032 7.980468 8.027343 12.457031 18.886718 12.457031 30.207031zm0 0" fill="#ffea3a"/><path d="m221.867188 384h76.800781v25.601562h-76.800781zm0 0" fill="#37474f"/><path d="m34.132812 145.066406h187.734376c14.136718 0 25.597656 11.460938 25.597656 25.601563v307.199219c0 14.136718-11.460938 25.597656-25.597656 25.597656h-187.734376c-14.136718 0-25.597656-11.460938-25.597656-25.597656v-307.199219c0-14.140625 11.460938-25.601563 25.597656-25.601563zm0 0" fill="#bdc3c7"/><path d="m25.601562 145.066406h187.730469c14.140625 0 25.601563 11.460938 25.601563 25.601563v307.199219c0 14.136718-11.460938 25.597656-25.601563 25.597656h-187.730469c-14.140624 0-25.601562-11.460938-25.601562-25.597656v-307.199219c0-14.140625 11.460938-25.601563 25.601562-25.601563zm0 0" fill="#37474f"/><path d="m25.601562 145.066406h162.132813c14.136719 0 25.597656 11.460938 25.597656 25.601563v307.199219c0 14.136718-11.460937 25.597656-25.597656 25.597656h-162.132813c-14.140624 0-25.601562-11.460938-25.601562-25.597656v-307.199219c0-14.140625 11.460938-25.601563 25.601562-25.601563zm0 0" fill="#607d8a"/><path d="m247.125 196.265625h-238.589844v256h238.929688v-256zm0 0" fill="#ced7db"/><path d="m119.464844 503.464844v-17.066406c0-4.710938 3.824218-8.53125 8.535156-8.53125s8.535156 3.820312 8.535156 8.53125v17.066406zm0 0" fill="#7f8c8d"/><g fill="#e6e7e8"><path d="m102.398438 358.398438h-59.730469c-4.714844 0-8.535157-3.820313-8.535157-8.53125 0-4.714844 3.820313-8.535157 8.535157-8.535157h59.730469c4.714843 0 8.535156 3.820313 8.535156 8.535157 0 4.710937-3.820313 8.53125-8.535156 8.53125zm0 0"/><path d="m213.332031 358.398438h-8.53125c-4.714843 0-8.535156-3.820313-8.535156-8.53125 0-4.714844 3.820313-8.535157 8.535156-8.535157h8.53125c4.714844 0 8.535157 3.820313 8.535157 8.535157 0 4.710937-3.820313 8.53125-8.535157 8.53125zm0 0"/><path d="m170.667969 358.398438h-34.132813c-4.714844 0-8.535156-3.820313-8.535156-8.53125 0-4.714844 3.820312-8.535157 8.535156-8.535157h34.132813c4.710937 0 8.53125 3.820313 8.53125 8.535157 0 4.710937-3.820313 8.53125-8.53125 8.53125zm0 0"/><path d="m51.199219 392.535156h-8.53125c-4.714844 0-8.535157-3.824218-8.535157-8.535156s3.820313-8.535156 8.535157-8.535156h8.53125c4.714843 0 8.535156 3.824218 8.535156 8.535156s-3.820313 8.535156-8.535156 8.535156zm0 0"/><path d="m85.332031 392.535156c-4.710937 0-8.53125-3.824218-8.53125-8.535156s3.820313-8.535156 8.53125-8.535156h128c4.714844 0 8.535157 3.824218 8.535157 8.535156s-3.820313 8.535156-8.535157 8.535156"/><path d="m153.601562 426.667969h-8.535156c-4.710937 0-8.53125-3.820313-8.53125-8.535157 0-4.710937 3.820313-8.53125 8.53125-8.53125h8.535156c4.710938 0 8.53125 3.820313 8.53125 8.53125 0 4.714844-3.820312 8.535157-8.53125 8.535157zm0 0"/><path d="m110.933594 426.667969h-68.265625c-4.714844 0-8.535157-3.820313-8.535157-8.535157 0-4.710937 3.820313-8.53125 8.535157-8.53125h68.265625c4.710937 0 8.53125 3.820313 8.53125 8.53125 0 4.714844-3.820313 8.535157-8.53125 8.535157zm0 0"/></g><path d="m110.933594 281.601562c0 18.851563-15.28125 34.132813-34.132813 34.132813-4.398437.03125-8.753906-.839844-12.800781-2.5625-12.890625-5.183594-21.332031-17.679687-21.332031-31.570313 0-13.894531 8.441406-26.390624 21.332031-31.574218 4.046875-1.722656 8.402344-2.59375 12.800781-2.5625 9.050781 0 17.734375 3.597656 24.136719 10 6.398438 6.402344 9.996094 15.082031 9.996094 24.136718zm0 0" fill="#fdc008"/><path d="m213.332031 281.601562c0 18.851563-15.28125 34.132813-34.132812 34.132813-4.394531.03125-8.753907-.839844-12.800781-2.5625-12.886719-5.183594-21.332032-17.679687-21.332032-31.570313 0-13.894531 8.445313-26.390624 21.332032-31.574218 4.046874-1.722656 8.40625-2.59375 12.800781-2.5625 9.054687 0 17.734375 3.597656 24.136719 10 6.402343 6.402344 9.996093 15.082031 9.996093 24.136718zm0 0" fill="#fdc008"/><path d="m85.332031 281.601562c0-17.4375-9.550781-31.574218-21.332031-31.574218s-21.332031 14.136718-21.332031 31.574218 9.550781 31.570313 21.332031 31.570313 21.332031-14.132813 21.332031-31.570313zm0 0" fill="#ffea3a"/><path d="m187.734375 281.601562c0-17.4375-9.550781-31.574218-21.335937-31.574218-11.78125 0-21.332032 14.136718-21.332032 31.574218s9.550782 31.570313 21.332032 31.570313c11.785156 0 21.335937-14.132813 21.335937-31.570313zm0 0" fill="#ffea3a"/><path d="m290.816406 284.816406c1.222656 3.261719 4.371094 5.394532 7.851563 5.316406 2.257812-.03125 4.421875-.917968 6.058593-2.472656.769532-.816406 1.378907-1.773437 1.789063-2.816406.4375-1.027344.671875-2.128906.683594-3.242188-.03125-2.257812-.914063-4.421874-2.472657-6.050781-.429687-.351562-.855468-.691406-1.367187-1.035156-.4375-.335937-.925781-.59375-1.449219-.765625-.511718-.261719-1.0625-.429688-1.628906-.503906-1.09375-.265625-2.230469-.265625-3.320312 0-.535157.085937-1.054688.253906-1.535157.503906-.546875.1875-1.066406.445312-1.546875.765625l-1.269531 1.035156c-1.5625 1.628907-2.449219 3.792969-2.476563 6.050781-.023437 1.109376.207032 2.210938.683594 3.214844zm0 0"/><path d="m366.933594 392.535156h59.734375c4.710937 0 8.53125-3.824218 8.53125-8.535156s-3.820313-8.535156-8.53125-8.535156h-59.734375c-4.714844 0-8.535156 3.824218-8.535156 8.535156s3.820312 8.535156 8.535156 8.535156zm0 0"/><path d="m460.800781 375.464844c-4.714843 0-8.535156 3.824218-8.535156 8.535156s3.820313 8.535156 8.535156 8.535156h8.53125c4.714844 0 8.535157-3.824218 8.535157-8.535156s-3.820313-8.535156-8.535157-8.535156zm0 0"/><path d="m375.464844 409.601562h-8.53125c-4.714844 0-8.535156 3.820313-8.535156 8.53125 0 4.714844 3.820312 8.535157 8.535156 8.535157h8.53125c4.714844 0 8.535156-3.820313 8.535156-8.535157 0-4.710937-3.820312-8.53125-8.535156-8.53125zm0 0"/><path d="m469.332031 409.601562h-59.730469c-4.714843 0-8.535156 3.820313-8.535156 8.53125 0 4.714844 3.820313 8.535157 8.535156 8.535157h59.730469c4.714844 0 8.535157-3.820313 8.535157-8.535157 0-4.710937-3.820313-8.53125-8.535157-8.53125zm0 0"/><path d="m494.933594 175.394531v-132.726562c-.027344-23.554688-19.113282-42.6406252-42.667969-42.667969h-392.53125c-23.554687.0273438-42.640625 19.113281-42.667969 42.667969v98.59375c-10.53125 6.050781-17.035156 17.257812-17.066406 29.40625v307.199219c0 18.851562 15.28125 34.132812 34.132812 34.132812h187.734376c18.851562 0 34.132812-15.28125 34.132812-34.132812v-17.066407h68.265625v17.066407c0 18.851562 15.28125 34.132812 34.132813 34.132812h119.46875c18.851562 0 34.132812-15.28125 34.132812-34.132812v-273.066407c-.03125-12.144531-6.535156-23.355469-17.066406-29.40625zm-477.867188 29.40625h221.867188v238.933594h-221.867188zm238.933594 187.734375h34.132812v17.066406h-34.132812zm51.199219 0h17.066406v17.066406h-17.066406zm17.066406-17.070312h-68.265625v-51.199219h68.265625zm-68.265625 51.203125h68.265625v17.066406h-68.265625zm85.332031-187.734375h153.601563v204.800781h-153.601563zm0-17.066406v-17.066407c0-9.425781 7.640625-17.066406 17.066407-17.066406h119.46875c9.425781 0 17.066406 7.640625 17.066406 17.066406v17.066407zm-307.199219-179.199219c0-14.140625 11.460938-25.601563 25.601563-25.601563h392.53125c14.140625 0 25.601563 11.460938 25.601563 25.601563v128h-119.46875c-18.851563 0-34.132813 15.28125-34.132813 34.132812h-25.597656c-4.714844 0-8.535157 3.820313-8.535157 8.53125 0 4.714844 3.820313 8.535157 8.535157 8.535157h25.597656v17.066406h-17.066406c-4.710938 0-8.53125 3.820312-8.53125 8.53125 0 4.714844 3.820312 8.535156 8.53125 8.535156h17.066406v51.199219h-68.265625v-17.066407h8.535156c4.710938 0 8.53125-3.820312 8.53125-8.53125 0-4.714843-3.820312-8.535156-8.53125-8.535156h-8.535156v-17.066406h17.066406c4.714844 0 8.535156-3.820312 8.535156-8.535156 0-4.710938-3.820312-8.53125-8.535156-8.53125h-17.066406v-17.066406h8.535156c4.710938 0 8.53125-3.820313 8.53125-8.535157 0-4.710937-3.820312-8.53125-8.53125-8.53125h-8.535156v-34.132812c0-18.851563-15.28125-34.132813-34.132812-34.132813h-187.734376zm0 110.933593h187.734376c9.425781 0 17.066406 7.640626 17.066406 17.066407v17.066406h-221.867188v-17.066406c0-9.425781 7.640625-17.066407 17.066406-17.066407zm187.734376 341.332032h-85.332032v-8.535156c0-4.710938-3.824218-8.53125-8.535156-8.53125s-8.535156 3.820312-8.535156 8.53125v8.535156h-85.332032c-9.425781 0-17.066406-7.640625-17.066406-17.066406v-17.066407h221.867188v17.066407c0 9.425781-7.640625 17.066406-17.066406 17.066406zm256 0h-51.199219v-8.535156c0-4.710938-3.820313-8.53125-8.535157-8.53125-4.710937 0-8.53125 3.820312-8.53125 8.53125v8.535156h-51.203124c-9.425782 0-17.066407-7.640625-17.066407-17.066406v-17.066407h153.601563v17.066407c0 9.425781-7.640625 17.066406-17.066406 17.066406zm0 0"/><path d="m119.464844 59.734375c-29.171875-.074219-54.097656 21.003906-58.878906 49.78125-.699219 4.609375 2.425781 8.925781 7.019531 9.699219 4.597656.773437 8.964843-2.28125 9.808593-6.863282 3.449219-20.550781 21.238282-35.605468 42.078126-35.605468 20.839843 0 38.628906 15.054687 42.078124 35.605468.691407 4.101563 4.242188 7.109376 8.40625 7.113282.476563 0 .953126-.039063 1.425782-.117188 4.644531-.785156 7.777344-5.183594 6.996094-9.832031-4.78125-28.796875-29.738282-49.878906-58.933594-49.78125zm0 0"/><path d="m256 76.800781c19.308594 0 36.214844 12.96875 41.210938 31.621094 4.996093 18.652344-3.15625 38.339844-19.878907 47.992187-2.777343 1.453126-4.535156 4.3125-4.574219 7.449219-.042968 3.132813 1.636719 6.039063 4.371094 7.566407 2.738282 1.527343 6.09375 1.429687 8.738282-.25 24.035156-13.863282 35.359374-42.445313 27.34375-69.007813-8.019532-26.558594-33.269532-44.105469-60.957032-42.351563-27.691406 1.75-50.527344 22.335938-55.132812 49.695313-.703125 4.609375 2.421875 8.925781 7.019531 9.699219 4.59375.773437 8.960937-2.28125 9.808594-6.863282 3.421875-20.550781 21.21875-35.597656 42.050781-35.550781zm0 0"/><path d="m418.132812 358.398438c28.277344 0 51.199219-22.921876 51.199219-51.199219 0-28.277344-22.921875-51.199219-51.199219-51.199219-28.277343 0-51.199218 22.921875-51.199218 51.199219.03125 28.265625 22.9375 51.167969 51.199218 51.199219zm0-85.332032c18.851563 0 34.132813 15.28125 34.132813 34.132813 0 18.851562-15.28125 34.132812-34.132813 34.132812-18.851562 0-34.132812-15.28125-34.132812-34.132812 0-18.851563 15.28125-34.132813 34.132812-34.132813zm0 0"/><path d="m352.527344 152.414062c1.957031-1.140624 3.375-3.011718 3.953125-5.203124.574219-2.1875.253906-4.515626-.886719-6.46875-3.757812-6.460938-5.734375-13.804688-5.726562-21.277344 0-23.5625 19.101562-42.664063 42.667968-42.664063 23.5625 0 42.664063 19.101563 42.664063 42.664063.007812 7.480468-1.964844 14.828125-5.726563 21.292968-1.691406 2.640626-1.800781 5.996094-.28125 8.738282 1.519532 2.746094 4.421875 4.433594 7.558594 4.398437 3.136719-.03125 6.003906-1.785156 7.460938-4.5625 14.550781-25.101562 8.960937-57.027343-13.253907-75.691406-22.214843-18.664063-54.628906-18.664063-76.847656 0-22.214844 18.664063-27.804687 50.589844-13.253906 75.691406 1.140625 1.957031 3.007812 3.382813 5.199219 3.960938 2.1875.578125 4.519531.261719 6.472656-.878907zm0 0"/><path d="m42.667969 358.398438h59.730469c4.714843 0 8.535156-3.820313 8.535156-8.53125 0-4.714844-3.820313-8.535157-8.535156-8.535157h-59.730469c-4.714844 0-8.535157 3.820313-8.535157 8.535157 0 4.710937 3.820313 8.53125 8.535157 8.53125zm0 0"/><path d="m213.332031 341.332031h-8.53125c-4.714843 0-8.535156 3.820313-8.535156 8.535157 0 4.710937 3.820313 8.53125 8.535156 8.53125h8.53125c4.714844 0 8.535157-3.820313 8.535157-8.53125 0-4.714844-3.820313-8.535157-8.535157-8.535157zm0 0"/><path d="m136.535156 358.398438h34.132813c4.710937 0 8.53125-3.820313 8.53125-8.53125 0-4.714844-3.820313-8.535157-8.53125-8.535157h-34.132813c-4.714844 0-8.535156 3.820313-8.535156 8.535157 0 4.710937 3.820312 8.53125 8.535156 8.53125zm0 0"/><path d="m42.667969 392.535156h8.53125c4.714843 0 8.535156-3.824218 8.535156-8.535156s-3.820313-8.535156-8.535156-8.535156h-8.53125c-4.714844 0-8.535157 3.824218-8.535157 8.535156s3.820313 8.535156 8.535157 8.535156zm0 0"/><path d="m213.332031 375.464844h-128c-4.710937 0-8.53125 3.824218-8.53125 8.535156s3.820313 8.535156 8.53125 8.535156h128c4.714844 0 8.535157-3.824218 8.535157-8.535156s-3.820313-8.535156-8.535157-8.535156zm0 0"/><path d="m153.601562 409.601562h-8.535156c-4.710937 0-8.53125 3.820313-8.53125 8.53125 0 4.714844 3.820313 8.535157 8.53125 8.535157h8.535156c4.710938 0 8.53125-3.820313 8.53125-8.535157 0-4.710937-3.820312-8.53125-8.53125-8.53125zm0 0"/><path d="m110.933594 409.601562h-68.265625c-4.714844 0-8.535157 3.820313-8.535157 8.53125 0 4.714844 3.820313 8.535157 8.535157 8.535157h68.265625c4.710937 0 8.53125-3.820313 8.53125-8.535157 0-4.710937-3.820313-8.53125-8.53125-8.53125zm0 0"/><path d="m76.800781 324.265625c23.5625 0 42.664063-19.101563 42.664063-42.664063 0-23.566406-19.101563-42.667968-42.664063-42.667968-23.566406 0-42.667969 19.101562-42.667969 42.667968.027344 23.550782 19.113282 42.636719 42.667969 42.664063zm0-68.265625c14.136719 0 25.597657 11.460938 25.597657 25.601562 0 14.136719-11.460938 25.597657-25.597657 25.597657-14.140625 0-25.601562-11.460938-25.601562-25.597657 0-14.140624 11.460937-25.601562 25.601562-25.601562zm0 0"/><path d="m179.199219 324.265625c23.566406 0 42.667969-19.101563 42.667969-42.664063 0-23.566406-19.101563-42.667968-42.667969-42.667968-23.5625 0-42.664063 19.101562-42.664063 42.667968.027344 23.550782 19.113282 42.636719 42.664063 42.664063zm0-68.265625c14.140625 0 25.601562 11.460938 25.601562 25.601562 0 14.136719-11.460937 25.597657-25.601562 25.597657-14.136719 0-25.597657-11.460938-25.597657-25.597657 0-14.140624 11.460938-25.601562 25.597657-25.601562zm0 0"/></svg>