<svg height="512pt" viewBox="0 -13 512.00003 512" width="512pt" xmlns="http://www.w3.org/2000/svg"><path d="m503.464844 93.867188v324.265624c0 18.851563-15.28125 34.132813-34.132813 34.132813h-426.664062c-18.851563 0-34.132813-15.28125-34.132813-34.132813v-324.265624zm0 0" fill="#9d9d9d"/><path d="m477.867188 93.867188v324.265624c0 18.851563-15.28125 34.132813-34.132813 34.132813h-401.066406c-18.851563 0-34.132813-15.28125-34.132813-34.132813v-324.265624zm0 0" fill="#ced7db"/><path d="m503.464844 42.667969v68.265625h-494.929688v-68.265625c0-18.851563 15.28125-34.132813 34.132813-34.132813h426.664062c18.851563 0 34.132813 15.28125 34.132813 34.132813zm0 0" fill="#00828e"/><path d="m477.867188 42.667969v68.265625h-469.332032v-68.265625c0-18.851563 15.28125-34.132813 34.132813-34.132813h401.066406c18.851563 0 34.132813 15.28125 34.132813 34.132813zm0 0" fill="#00bbd3"/><path d="m76.800781 59.734375c0 9.425781-7.640625 17.066406-17.066406 17.066406s-17.066406-7.640625-17.066406-17.066406 7.640625-17.066406 17.066406-17.066406 17.066406 7.640625 17.066406 17.066406zm0 0" fill="#f34335"/><path d="m145.066406 59.734375c0 9.425781-7.640625 17.066406-17.066406 17.066406s-17.066406-7.640625-17.066406-17.066406 7.640625-17.066406 17.066406-17.066406 17.066406 7.640625 17.066406 17.066406zm0 0" fill="#ffea3a"/><path d="m213.332031 59.734375c0 9.425781-7.640625 17.066406-17.066406 17.066406s-17.066406-7.640625-17.066406-17.066406 7.640625-17.066406 17.066406-17.066406 17.066406 7.640625 17.066406 17.066406zm0 0" fill="#4cae50"/><path d="m366.933594 68.265625h-85.332032c-4.714843 0-8.535156-3.820313-8.535156-8.53125 0-4.714844 3.820313-8.535156 8.535156-8.535156h85.332032c4.710937 0 8.53125 3.820312 8.53125 8.535156 0 4.710937-3.820313 8.53125-8.53125 8.53125zm0 0" fill="#955ba5"/><path d="m82.832031 139.035156c-3.332031-3.332031-8.734375-3.332031-12.066406 0l-25.597656 25.597656c-3.332031 3.332032-3.332031 8.734376 0 12.066407l25.597656 25.601562c3.347656 3.234375 8.671875 3.1875 11.964844-.105469 3.289062-3.292968 3.335937-8.613281.101562-11.960937l-19.566406-19.566406 19.566406-19.566407c3.332031-3.335937 3.332031-8.734374 0-12.066406zm0 0" fill="#2fa8cc"/><path d="m185.234375 164.632812-25.601563-25.597656c-3.347656-3.234375-8.671874-3.1875-11.960937.101563-3.292969 3.292969-3.339844 8.613281-.105469 11.964843l19.566406 19.566407-19.566406 19.566406c-2.21875 2.140625-3.105468 5.316406-2.328125 8.296875.78125 2.984375 3.113281 5.316406 6.097657 6.09375 2.980468.78125 6.15625-.105469 8.296874-2.324219l25.601563-25.601562c3.328125-3.332031 3.328125-8.734375 0-12.066407zm0 0" fill="#2fa8cc"/><path d="m131.8125 137.429688c-2.023438-1.011719-4.367188-1.179688-6.515625-.460938-2.148437.714844-3.921875 2.257812-4.933594 4.285156l-25.601562 51.199219c-2.105469 4.21875-.394531 9.34375 3.824219 11.449219 4.21875 2.109375 9.34375.398437 11.453124-3.820313l25.597657-51.199219c1.011719-2.027343 1.179687-4.371093.460937-6.519531-.714844-2.148437-2.257812-3.921875-4.285156-4.933593zm0 0" fill="#2fa8cc"/><g fill="#3f5c6c"><path d="m256 153.601562h-42.667969c-4.710937 0-8.53125 3.820313-8.53125 8.53125 0 4.714844 3.820313 8.535157 8.53125 8.535157h42.667969c4.710938 0 8.535156-3.820313 8.535156-8.535157 0-4.710937-3.824218-8.53125-8.535156-8.53125zm0 0"/><path d="m298.667969 153.601562h-8.535157c-4.710937 0-8.53125 3.820313-8.53125 8.53125 0 4.714844 3.820313 8.535157 8.53125 8.535157h8.535157c4.710937 0 8.53125-3.820313 8.53125-8.535157 0-4.710937-3.820313-8.53125-8.53125-8.53125zm0 0"/><path d="m213.332031 213.332031h17.066407c4.714843 0 8.535156-3.820312 8.535156-8.53125 0-4.714843-3.820313-8.535156-8.535156-8.535156h-17.066407c-4.710937 0-8.53125 3.820313-8.53125 8.535156 0 4.710938 3.820313 8.53125 8.53125 8.53125zm0 0"/><path d="m51.199219 256h25.601562c4.710938 0 8.53125-3.820312 8.53125-8.535156 0-4.710938-3.820312-8.53125-8.53125-8.53125h-25.601562c-4.710938 0-8.53125 3.820312-8.53125 8.53125 0 4.714844 3.820312 8.535156 8.53125 8.535156zm0 0"/><path d="m110.933594 256h68.265625c4.714843 0 8.535156-3.820312 8.535156-8.535156 0-4.710938-3.820313-8.53125-8.535156-8.53125h-68.265625c-4.714844 0-8.535156 3.820312-8.535156 8.53125 0 4.714844 3.820312 8.535156 8.535156 8.535156zm0 0"/><path d="m247.464844 238.933594h-34.132813c-4.710937 0-8.53125 3.820312-8.53125 8.53125 0 4.714844 3.820313 8.535156 8.53125 8.535156h34.132813c4.714844 0 8.535156-3.820312 8.535156-8.535156 0-4.710938-3.820312-8.53125-8.535156-8.53125zm0 0"/><path d="m76.800781 324.265625h-25.601562c-4.710938 0-8.53125 3.820313-8.53125 8.535156 0 4.710938 3.820312 8.53125 8.53125 8.53125h25.601562c4.710938 0 8.53125-3.820312 8.53125-8.53125 0-4.714843-3.820312-8.535156-8.53125-8.535156zm0 0"/><path d="m179.199219 324.265625h-68.265625c-4.714844 0-8.535156 3.820313-8.535156 8.535156 0 4.710938 3.820312 8.53125 8.535156 8.53125h68.265625c4.714843 0 8.535156-3.820312 8.535156-8.53125 0-4.714843-3.820313-8.535156-8.535156-8.535156zm0 0"/><path d="m247.464844 324.265625h-34.132813c-4.710937 0-8.53125 3.820313-8.53125 8.535156 0 4.710938 3.820313 8.53125 8.53125 8.53125h34.132813c4.714844 0 8.535156-3.820312 8.535156-8.53125 0-4.714843-3.820312-8.535156-8.535156-8.535156zm0 0"/><path d="m247.464844 281.601562h-68.265625c-4.710938 0-8.53125 3.820313-8.53125 8.53125 0 4.714844 3.820312 8.535157 8.53125 8.535157h68.265625c4.714844 0 8.535156-3.820313 8.535156-8.535157 0-4.710937-3.820312-8.53125-8.535156-8.53125zm0 0"/><path d="m51.199219 298.667969h93.867187c4.714844 0 8.535156-3.820313 8.535156-8.535157 0-4.710937-3.820312-8.53125-8.535156-8.53125h-93.867187c-4.710938 0-8.53125 3.820313-8.53125 8.53125 0 4.714844 3.820312 8.535157 8.53125 8.535157zm0 0"/></g><path d="m298.667969 256h187.730469v68.265625h-187.730469zm0 0" fill="#37474f"/><path d="m298.667969 366.933594h187.730469v51.199218h-187.730469zm0 0" fill="#37474f"/><path d="m298.667969 256h162.132812v68.265625h-162.132812zm0 0" fill="#607d8a"/><path d="m298.667969 366.933594h162.132812v51.199218h-162.132812zm0 0" fill="#607d8a"/><path d="m298.667969 204.800781h187.730469c9.425781 0 17.066406 7.640625 17.066406 17.066407v34.132812c0 9.425781-7.640625 17.066406-17.066406 17.066406h-187.730469c-9.425781 0-17.066407-7.640625-17.066407-17.066406v-34.132812c0-9.425782 7.640626-17.066407 17.066407-17.066407zm0 0" fill="#00828e"/><path d="m298.667969 307.199219h187.730469c9.425781 0 17.066406 7.640625 17.066406 17.066406v34.132813c0 9.425781-7.640625 17.066406-17.066406 17.066406h-187.730469c-9.425781 0-17.066407-7.640625-17.066407-17.066406v-34.132813c0-9.425781 7.640626-17.066406 17.066407-17.066406zm0 0" fill="#00828e"/><path d="m298.667969 409.601562h187.730469c9.425781 0 17.066406 7.640626 17.066406 17.066407v34.132812c0 9.425781-7.640625 17.066407-17.066406 17.066407h-187.730469c-9.425781 0-17.066407-7.640626-17.066407-17.066407v-34.132812c0-9.425781 7.640626-17.066407 17.066407-17.066407zm0 0" fill="#00828e"/><path d="m298.667969 204.800781h162.132812c9.425781 0 17.066407 7.640625 17.066407 17.066407v34.132812c0 9.425781-7.640626 17.066406-17.066407 17.066406h-162.132812c-9.425781 0-17.066407-7.640625-17.066407-17.066406v-34.132812c0-9.425782 7.640626-17.066407 17.066407-17.066407zm0 0" fill="#00bbd3"/><path d="m298.667969 307.199219h162.132812c9.425781 0 17.066407 7.640625 17.066407 17.066406v34.132813c0 9.425781-7.640626 17.066406-17.066407 17.066406h-162.132812c-9.425781 0-17.066407-7.640625-17.066407-17.066406v-34.132813c0-9.425781 7.640626-17.066406 17.066407-17.066406zm0 0" fill="#00bbd3"/><path d="m298.667969 409.601562h162.132812c9.425781 0 17.066407 7.640626 17.066407 17.066407v34.132812c0 9.425781-7.640626 17.066407-17.066407 17.066407h-162.132812c-9.425781 0-17.066407-7.640626-17.066407-17.066407v-34.132812c0-9.425781 7.640626-17.066407 17.066407-17.066407zm0 0" fill="#00bbd3"/><path d="m324.265625 247.464844h-8.53125c-4.714844 0-8.535156-3.820313-8.535156-8.53125 0-4.714844 3.820312-8.535156 8.535156-8.535156h8.53125c4.714844 0 8.535156 3.820312 8.535156 8.535156 0 4.710937-3.820312 8.53125-8.535156 8.53125zm0 0" fill="#f0c419"/><path d="m358.398438 247.464844c-4.019532-.039063-7.457032-2.910156-8.210938-6.859375-.757812-3.949219 1.378906-7.886719 5.101562-9.40625 3.722657-1.523438 8.003907-.207031 10.230469 3.144531 2.226563 3.347656 1.78125 7.804688-1.0625 10.648438-1.632812 1.558593-3.796875 2.441406-6.058593 2.472656zm0 0" fill="#14a085"/><path d="m469.332031 247.464844h-76.796875c-4.714844 0-8.535156-3.820313-8.535156-8.53125 0-4.714844 3.820312-8.535156 8.535156-8.535156h76.796875c4.714844 0 8.535157 3.820312 8.535157 8.535156 0 4.710937-3.820313 8.53125-8.535157 8.53125zm0 0" fill="#bdc3c7"/><path d="m324.265625 349.867188h-8.53125c-4.714844 0-8.535156-3.820313-8.535156-8.535157 0-4.710937 3.820312-8.53125 8.535156-8.53125h8.53125c4.714844 0 8.535156 3.820313 8.535156 8.53125 0 4.714844-3.820312 8.535157-8.535156 8.535157zm0 0" fill="#f0c419"/><path d="m358.398438 349.867188c-3.464844.019531-6.601563-2.058594-7.929688-5.261719s-.589844-6.890625 1.871094-9.332031c.832031-.75 1.785156-1.359376 2.816406-1.789063 3.1875-1.253906 6.808594-.554687 9.300781 1.789063 2.464844 2.441406 3.203125 6.128906 1.875 9.332031-1.332031 3.203125-4.464843 5.28125-7.933593 5.261719zm0 0" fill="#14a085"/><path d="m469.332031 349.867188h-76.796875c-4.714844 0-8.535156-3.820313-8.535156-8.535157 0-4.710937 3.820312-8.53125 8.535156-8.53125h76.796875c4.714844 0 8.535157 3.820313 8.535157 8.53125 0 4.714844-3.820313 8.535157-8.535157 8.535157zm0 0" fill="#bdc3c7"/><path d="m324.265625 452.265625h-8.53125c-4.714844 0-8.535156-3.820313-8.535156-8.53125 0-4.714844 3.820312-8.535156 8.535156-8.535156h8.53125c4.714844 0 8.535156 3.820312 8.535156 8.535156 0 4.710937-3.820312 8.53125-8.535156 8.53125zm0 0" fill="#f0c419"/><path d="m358.398438 452.265625c-4.019532-.039063-7.457032-2.910156-8.210938-6.859375-.757812-3.953125 1.378906-7.886719 5.101562-9.40625 3.722657-1.523438 8.003907-.207031 10.230469 3.140625 2.226563 3.351563 1.78125 7.808594-1.0625 10.652344-1.632812 1.558593-3.796875 2.441406-6.058593 2.472656zm0 0" fill="#14a085"/><path d="m469.332031 452.265625h-76.796875c-4.714844 0-8.535156-3.820313-8.535156-8.53125 0-4.714844 3.820312-8.535156 8.535156-8.535156h76.796875c4.714844 0 8.535157 3.820312 8.535157 8.535156 0 4.710937-3.820313 8.53125-8.535157 8.53125zm0 0" fill="#bdc3c7"/><path d="m59.734375 34.132812c-14.140625 0-25.601563 11.460938-25.601563 25.601563 0 14.136719 11.460938 25.597656 25.601563 25.597656 14.136719 0 25.597656-11.460937 25.597656-25.597656 0-14.140625-11.460937-25.601563-25.597656-25.601563zm0 34.132813c-4.714844 0-8.535156-3.820313-8.535156-8.53125 0-4.714844 3.820312-8.535156 8.535156-8.535156 4.710937 0 8.53125 3.820312 8.53125 8.535156 0 4.710937-3.820313 8.53125-8.53125 8.53125zm0 0"/><path d="m128 34.132812c-14.136719 0-25.601562 11.460938-25.601562 25.601563 0 14.136719 11.464843 25.597656 25.601562 25.597656s25.601562-11.460937 25.601562-25.597656c0-14.140625-11.464843-25.601563-25.601562-25.601563zm0 34.132813c-4.710938 0-8.535156-3.820313-8.535156-8.53125 0-4.714844 3.824218-8.535156 8.535156-8.535156s8.535156 3.820312 8.535156 8.535156c0 4.710937-3.824218 8.53125-8.535156 8.53125zm0 0"/><path d="m196.265625 34.132812c-14.136719 0-25.597656 11.460938-25.597656 25.601563 0 14.136719 11.460937 25.597656 25.597656 25.597656 14.140625 0 25.601563-11.460937 25.601563-25.597656 0-14.140625-11.460938-25.601563-25.601563-25.601563zm0 34.132813c-4.710937 0-8.53125-3.820313-8.53125-8.53125 0-4.714844 3.820313-8.535156 8.53125-8.535156 4.714844 0 8.535156 3.820312 8.535156 8.535156 0 4.710937-3.820312 8.53125-8.535156 8.53125zm0 0"/><path d="m366.933594 51.199219h-85.332032c-4.714843 0-8.535156 3.820312-8.535156 8.535156 0 4.710937 3.820313 8.53125 8.535156 8.53125h85.332032c4.710937 0 8.53125-3.820313 8.53125-8.53125 0-4.714844-3.820313-8.535156-8.53125-8.535156zm0 0"/><path d="m460.800781 51.199219h-59.734375c-4.710937 0-8.53125 3.820312-8.53125 8.535156 0 4.710937 3.820313 8.53125 8.53125 8.53125h59.734375c4.710938 0 8.53125-3.820313 8.53125-8.53125 0-4.714844-3.820312-8.535156-8.53125-8.535156zm0 0"/><path d="m469.332031 0h-426.664062c-23.554688.0273438-42.6406252 19.113281-42.667969 42.667969v375.464843c.0273438 23.554688 19.113281 42.640626 42.667969 42.667969h204.796875c4.714844 0 8.535156-3.820312 8.535156-8.535156 0-4.710937-3.820312-8.53125-8.535156-8.53125h-204.796875c-14.140625 0-25.601563-11.460937-25.601563-25.601563v-298.667968h477.867188v51.203125c0 4.710937 3.820312 8.53125 8.53125 8.53125 4.714844 0 8.535156-3.820313 8.535156-8.53125v-128c-.027344-23.554688-19.113281-42.6406252-42.667969-42.667969zm-452.265625 102.398438v-59.730469c0-14.140625 11.460938-25.601563 25.601563-25.601563h426.664062c14.140625 0 25.601563 11.460938 25.601563 25.601563v59.730469zm0 0"/><path d="m82.832031 139.015625c-3.332031-3.332031-8.734375-3.332031-12.066406 0l-25.597656 25.601563c-3.332031 3.332031-3.332031 8.734374 0 12.066406l25.597656 25.597656c3.347656 3.234375 8.671875 3.1875 11.964844-.101562 3.289062-3.292969 3.335937-8.613282.101562-11.964844l-19.566406-19.546875 19.566406-19.566407c1.605469-1.601562 2.507813-3.777343 2.507813-6.042968s-.902344-4.441406-2.507813-6.042969zm0 0"/><path d="m147.566406 202.28125c3.332032 3.332031 8.734375 3.332031 12.066406 0l25.601563-25.597656c3.328125-3.332032 3.328125-8.734375 0-12.066406l-25.601563-25.601563c-2.140624-2.21875-5.316406-3.105469-8.296874-2.324219-2.984376.777344-5.316407 3.109375-6.097657 6.09375-.777343 2.980469.109375 6.15625 2.328125 8.296875l19.566406 19.585938-19.566406 19.566406c-3.320312 3.328125-3.320312 8.71875 0 12.046875zm0 0"/><path d="m131.8125 137.386719c-2.023438-1.011719-4.367188-1.179688-6.515625-.464844-2.144531.714844-3.921875 2.253906-4.933594 4.277344l-25.601562 51.203125c-1.011719 2.023437-1.179688 4.367187-.460938 6.515625.71875 2.148437 2.257813 3.925781 4.285157 4.933593 1.179687.613282 2.484374.9375 3.8125.949219 3.25.015625 6.230468-1.8125 7.679687-4.71875l25.601563-51.199219c1.023437-2.035156 1.191406-4.394531.464843-6.554687-.726562-2.160156-2.285156-3.9375-4.332031-4.941406zm0 0"/><path d="m256 153.601562h-42.667969c-4.710937 0-8.53125 3.820313-8.53125 8.53125 0 4.714844 3.820313 8.535157 8.53125 8.535157h42.667969c4.710938 0 8.535156-3.820313 8.535156-8.535157 0-4.710937-3.824218-8.53125-8.535156-8.53125zm0 0"/><path d="m298.667969 170.667969c4.710937 0 8.53125-3.820313 8.53125-8.535157 0-4.710937-3.820313-8.53125-8.53125-8.53125h-8.535157c-4.710937 0-8.53125 3.820313-8.53125 8.53125 0 4.714844 3.820313 8.535157 8.53125 8.535157zm0 0"/><path d="m213.332031 213.332031h17.066407c4.714843 0 8.535156-3.820312 8.535156-8.53125 0-4.714843-3.820313-8.535156-8.535156-8.535156h-17.066407c-4.710937 0-8.53125 3.820313-8.53125 8.535156 0 4.710938 3.820313 8.53125 8.53125 8.53125zm0 0"/><path d="m51.199219 256h25.601562c4.710938 0 8.53125-3.820312 8.53125-8.535156 0-4.710938-3.820312-8.53125-8.53125-8.53125h-25.601562c-4.710938 0-8.53125 3.820312-8.53125 8.53125 0 4.714844 3.820312 8.535156 8.53125 8.535156zm0 0"/><path d="m102.398438 247.464844c0 4.714844 3.820312 8.535156 8.535156 8.535156h68.265625c4.714843 0 8.535156-3.820312 8.535156-8.535156 0-4.710938-3.820313-8.53125-8.535156-8.53125h-68.265625c-4.714844 0-8.535156 3.820312-8.535156 8.53125zm0 0"/><path d="m247.464844 238.933594h-34.132813c-4.710937 0-8.53125 3.820312-8.53125 8.53125 0 4.714844 3.820313 8.535156 8.53125 8.535156h34.132813c4.714844 0 8.535156-3.820312 8.535156-8.535156 0-4.710938-3.820312-8.53125-8.535156-8.53125zm0 0"/><path d="m51.199219 324.265625c-4.710938 0-8.53125 3.820313-8.53125 8.535156 0 4.710938 3.820312 8.53125 8.53125 8.53125h25.601562c4.710938 0 8.53125-3.820312 8.53125-8.53125 0-4.714843-3.820312-8.535156-8.53125-8.535156zm0 0"/><path d="m110.933594 341.332031h68.265625c4.714843 0 8.535156-3.820312 8.535156-8.53125 0-4.714843-3.820313-8.535156-8.535156-8.535156h-68.265625c-4.714844 0-8.535156 3.820313-8.535156 8.535156 0 4.710938 3.820312 8.53125 8.535156 8.53125zm0 0"/><path d="m247.464844 324.265625h-34.132813c-4.710937 0-8.53125 3.820313-8.53125 8.535156 0 4.710938 3.820313 8.53125 8.53125 8.53125h34.132813c4.714844 0 8.535156-3.820312 8.535156-8.53125 0-4.714843-3.820312-8.535156-8.535156-8.535156zm0 0"/><path d="m247.464844 281.601562h-68.265625c-4.710938 0-8.53125 3.820313-8.53125 8.53125 0 4.714844 3.820312 8.535157 8.53125 8.535157h68.265625c4.714844 0 8.535156-3.820313 8.535156-8.535157 0-4.710937-3.820312-8.53125-8.535156-8.53125zm0 0"/><path d="m153.601562 290.132812c0-4.710937-3.820312-8.53125-8.535156-8.53125h-93.867187c-4.710938 0-8.53125 3.820313-8.53125 8.53125 0 4.714844 3.820312 8.535157 8.53125 8.535157h93.867187c4.714844 0 8.535156-3.820313 8.535156-8.535157zm0 0"/><path d="m486.398438 196.265625h-187.730469c-14.140625 0-25.601563 11.460937-25.601563 25.601563v34.132812c.046875 10.808594 6.878906 20.417969 17.066406 24.019531v20.21875c-10.191406 3.601563-17.019531 13.21875-17.066406 24.027344v34.132813c.046875 10.808593 6.878906 20.421874 17.066406 24.023437v20.214844c-10.191406 3.601562-17.019531 13.21875-17.066406 24.03125v34.132812c0 14.136719 11.460938 25.597657 25.601563 25.597657h187.730469c14.140624 0 25.601562-11.460938 25.601562-25.597657v-34.132812c-.042969-10.8125-6.875-20.429688-17.066406-24.03125v-20.234375c10.183594-3.597656 17.011718-13.203125 17.066406-24.003906v-34.132813c-.042969-10.808594-6.875-20.425781-17.066406-24.027344v-20.234375c10.183594-3.601562 17.011718-13.203125 17.066406-24.003906v-34.132812c0-14.140626-11.460938-25.601563-25.601562-25.601563zm-8.53125 102.402344h-170.667969v-17.066407h170.667969zm0 102.398437h-170.667969v-17.066406h170.667969zm17.066406 59.734375c0 4.710938-3.820313 8.53125-8.535156 8.53125h-187.730469c-4.714844 0-8.535157-3.820312-8.535157-8.53125v-34.132812c0-4.714844 3.820313-8.535157 8.535157-8.535157h187.730469c4.714843 0 8.535156 3.820313 8.535156 8.535157zm-8.535156-93.867187h-187.730469c-4.714844 0-8.535157-3.820313-8.535157-8.535156v-34.132813c0-4.710937 3.820313-8.53125 8.535157-8.53125h187.730469c4.714843 0 8.535156 3.820313 8.535156 8.53125v34.132813c0 4.714843-3.820313 8.535156-8.535156 8.535156zm8.535156-110.933594c0 4.710938-3.820313 8.535156-8.535156 8.535156h-187.730469c-4.714844 0-8.535157-3.824218-8.535157-8.535156v-34.132812c0-4.714844 3.820313-8.535157 8.535157-8.535157h187.730469c4.714843 0 8.535156 3.820313 8.535156 8.535157zm0 0"/><path d="m324.265625 230.398438h-8.53125c-4.714844 0-8.535156 3.820312-8.535156 8.535156 0 4.710937 3.820312 8.53125 8.535156 8.53125h8.53125c4.714844 0 8.535156-3.820313 8.535156-8.53125 0-4.714844-3.820312-8.535156-8.535156-8.535156zm0 0"/><path d="m352.339844 232.875c-1.570313 1.625-2.457032 3.796875-2.472656 6.058594.03125 2.257812.917968 4.421875 2.472656 6.058594.832031.753906 1.785156 1.359374 2.816406 1.792968 1.027344.4375 2.128906.667969 3.242188.679688 2.273437.023437 4.457031-.867188 6.0625-2.472656 1.605468-1.605469 2.496093-3.789063 2.472656-6.058594-.015625-2.261719-.902344-4.433594-2.476563-6.058594-3.421875-3.15625-8.695312-3.15625-12.117187 0zm0 0"/><path d="m469.332031 230.398438h-76.796875c-4.714844 0-8.535156 3.820312-8.535156 8.535156 0 4.710937 3.820312 8.53125 8.535156 8.53125h76.796875c4.714844 0 8.535157-3.820313 8.535157-8.53125 0-4.714844-3.820313-8.535156-8.535157-8.535156zm0 0"/><path d="m324.265625 332.800781h-8.53125c-4.714844 0-8.535156 3.820313-8.535156 8.53125 0 4.714844 3.820312 8.535157 8.535156 8.535157h8.53125c4.714844 0 8.535156-3.820313 8.535156-8.535157 0-4.710937-3.820312-8.53125-8.535156-8.53125zm0 0"/><path d="m355.15625 333.398438c-1.035156.460937-1.988281 1.097656-2.816406 1.875-1.570313 1.628906-2.457032 3.796874-2.472656 6.058593 0 4.714844 3.820312 8.535157 8.53125 8.535157 4.714843 0 8.535156-3.820313 8.535156-8.535157-.015625-2.261719-.902344-4.429687-2.476563-6.058593-2.457031-2.40625-6.101562-3.140626-9.300781-1.875zm0 0"/><path d="m469.332031 332.800781h-76.796875c-4.714844 0-8.535156 3.820313-8.535156 8.53125 0 4.714844 3.820312 8.535157 8.535156 8.535157h76.796875c4.714844 0 8.535157-3.820313 8.535157-8.535157 0-4.710937-3.820313-8.53125-8.535157-8.53125zm0 0"/><path d="m324.265625 435.199219h-8.53125c-4.714844 0-8.535156 3.820312-8.535156 8.535156 0 4.710937 3.820312 8.53125 8.535156 8.53125h8.53125c4.714844 0 8.535156-3.820313 8.535156-8.53125 0-4.714844-3.820312-8.535156-8.535156-8.535156zm0 0"/><path d="m352.339844 437.675781c-1.570313 1.625-2.457032 3.796875-2.472656 6.058594.03125 2.257813.917968 4.421875 2.472656 6.058594.832031.753906 1.785156 1.359375 2.816406 1.792969 1.027344.433593 2.128906.667968 3.242188.679687 2.273437.023437 4.457031-.867187 6.0625-2.472656 1.605468-1.605469 2.496093-3.789063 2.472656-6.058594-.015625-2.261719-.902344-4.433594-2.476563-6.058594-3.421875-3.160156-8.695312-3.160156-12.117187 0zm0 0"/><path d="m469.332031 435.199219h-76.796875c-4.714844 0-8.535156 3.820312-8.535156 8.535156 0 4.710937 3.820312 8.53125 8.535156 8.53125h76.796875c4.714844 0 8.535157-3.820313 8.535157-8.53125 0-4.714844-3.820313-8.535156-8.535157-8.535156zm0 0"/></svg>