<?xml version="1.0" encoding="utf-8"?><svg viewBox="0 0 80 80" xmlns="http://www.w3.org/2000/svg" xmlns:xlink="http://www.w3.org/1999/xlink"><style>:root>svg{display:none}:root>svg:target{display:block}</style><svg fill="none" viewBox="0 0 26 19" id="Vector" xmlns="http://www.w3.org/2000/svg"><path d="M20.605 8.05c0-.435.145-.87.145-1.45 0-3.19-2.61-5.8-5.8-5.8-2.32 0-4.205 1.305-5.22 3.19-.29-.145-.87-.29-1.305-.29A3.59 3.59 0 004.8 7.325c0 .29 0 .58.145.725C2.335 8.485.45 10.515.45 13.125c0 2.755 2.32 5.075 5.075 5.075h14.5c2.755 0 5.075-2.32 5.075-5.075 0-2.61-1.885-4.785-4.495-5.075z" fill="#fff"/></svg><svg fill="none" viewBox="0 0 32 32" id="appstore" xmlns="http://www.w3.org/2000/svg"><path d="M16 2C8.266 2 2 8.266 2 16s6.266 14 14 14 14-6.266 14-14S23.734 2 16 2zm-5.313 20.118a.967.967 0 01-.84.478.932.932 0 01-.492-.135.968.968 0 01-.35-1.325l.956-1.59a.545.545 0 01.47-.268h.142c.693 0 1.178.417 1.32.82l-1.206 2.02zm8.091-3.125L12.52 19H8.36a.966.966 0 01-.969-1.01c.02-.524.478-.922 1-.922h3.015l3.575-6.084-1.158-1.972c-.26-.45-.145-1.042.302-1.325a.973.973 0 011.367.324l.619 1.057h.006l.62-1.057a.974.974 0 011.363-.323c.444.282.559.875.296 1.326l-1.157 1.972-1.125 1.918-2.443 4.166v.007h3.6c.451 0 1.017.242 1.246.632l.02.041c.202.343.316.579.316.922a.864.864 0 01-.073.323l-.002-.002zm4.86.007h-1.695v.007l1.239 2.107a.988.988 0 01-.323 1.345.97.97 0 01-.989.015.98.98 0 01-.358-.349l-1.83-3.116-1.138-1.938-1.467-2.509a2.396 2.396 0 01-.04-2.374c.29-.512.511-.647.511-.647l3.265 5.521h2.806c.525 0 .976.404 1 .922A.98.98 0 0123.64 19h-.002z" fill="#fff"/></svg><svg fill="none" viewBox="0 0 80 80" id="cloud" xmlns="http://www.w3.org/2000/svg"><path d="M48.75 55.18h-5.79V36.25a.627.627 0 00-.624-.625h-4.688a.627.627 0 00-.625.625v18.93H31.25a.623.623 0 00-.492 1.008l8.75 11.07a.627.627 0 00.984 0l8.75-11.07a.623.623 0 00-.492-1.008z" fill="#ED4C5C"/><path d="M63.39 28.648C59.813 19.211 50.696 12.5 40.017 12.5c-10.68 0-19.797 6.703-23.375 16.14C9.945 30.399 5 36.5 5 43.75c0 8.633 6.992 15.625 15.617 15.625h3.133a.627.627 0 00.625-.625v-4.688a.627.627 0 00-.625-.624h-3.133a9.63 9.63 0 01-6.953-2.946 9.683 9.683 0 01-2.726-7.078c.07-2.062.773-4 2.046-5.633a9.79 9.79 0 015.164-3.414l2.961-.773 1.086-2.86a18.788 18.788 0 012.79-4.953 19.19 19.19 0 014.093-3.898 18.916 18.916 0 0110.938-3.453c3.945 0 7.726 1.195 10.937 3.453a19.201 19.201 0 014.094 3.898 18.909 18.909 0 012.789 4.953l1.078 2.852 2.953.781a9.732 9.732 0 017.196 9.383 9.633 9.633 0 01-2.836 6.852 9.617 9.617 0 01-6.844 2.836H56.25a.627.627 0 00-.625.624v4.688c0 .344.281.625.625.625h3.133C68.008 59.375 75 52.383 75 43.75c0-7.242-4.93-13.336-11.61-15.102z" fill="#ED4C5C"/></svg><svg fill="none" viewBox="0 0 14 14" id="facebook" xmlns="http://www.w3.org/2000/svg"><path d="M10.5 1.167H8.75a2.917 2.917 0 00-2.917 2.916v1.75h-1.75v2.334h1.75v4.666h2.334V8.167h1.75l.583-2.334H8.167v-1.75A.583.583 0 018.75 3.5h1.75V1.167z" fill="#101010"/></svg><svg fill="none" viewBox="0 0 47 54" id="file-csv" xmlns="http://www.w3.org/2000/svg"><path d="M44.026 18.96H42.75v-6.142a.842.842 0 00-.011-.116 1.015 1.015 0 00-.248-.672L32.26.357l-.008-.008a1.063 1.063 0 00-.206-.173l-.068-.04a1.032 1.032 0 00-.205-.087L31.718.03a1.015 1.015 0 00-.24-.03H6.33a2.082 2.082 0 00-2.081 2.078v16.88H2.974A2.972 2.972 0 000 21.928v15.449c0 1.639 1.333 2.97 2.974 2.97H4.25v10.575C4.249 52.067 5.18 53 6.33 53h34.34a2.083 2.083 0 002.081-2.078V40.347h1.275A2.973 2.973 0 0047 37.377V21.928a2.971 2.971 0 00-2.974-2.968zM6.33 2.078h24.107v10.635a1.04 1.04 0 001.042 1.038h9.193v5.207H6.33V2.078zm15.57 28.48c-2.527-.902-4.194-2.299-4.194-4.505 0-2.589 2.188-4.547 5.75-4.547 1.738 0 2.977.338 3.88.764l-.768 2.747a7.14 7.14 0 00-3.156-.72c-1.49 0-2.211.697-2.211 1.463 0 .97.833 1.395 2.818 2.139 2.684.991 3.923 2.386 3.923 4.527 0 2.546-1.938 4.707-6.11 4.707-1.737 0-3.45-.474-4.307-.947l.7-2.814a8.682 8.682 0 003.809.946c1.579 0 2.414-.655 2.414-1.645 0-.946-.72-1.485-2.548-2.116zM3.991 29.52c0-5.158 3.698-8.017 8.297-8.017 1.782 0 3.134.358 3.743.653l-.722 2.724a7.248 7.248 0 00-2.886-.563c-2.705 0-4.824 1.643-4.824 5.02 0 3.018 1.803 4.933 4.847 4.933 1.06 0 2.188-.2 2.885-.495l.499 2.701c-.61.291-2.053.654-3.879.654-5.254.002-7.96-3.286-7.96-7.61zM40.67 50.362H6.33V40.349h34.34v10.013zm-2.779-13.455h-4.013l-4.87-15.178h3.766l1.848 6.42c.517 1.823.99 3.535 1.352 5.426h.068a67.248 67.248 0 011.374-5.359l1.94-6.485h3.65l-5.115 15.176z" fill="#ED4C5C"/></svg><svg fill="none" viewBox="0 0 70 70" id="file-pdf" xmlns="http://www.w3.org/2000/svg"><path d="M23.723 35.67c0-1.454-1.01-2.323-2.791-2.323-.727 0-1.219.071-1.477.14v4.67c.306.068.681.093 1.196.093 1.9 0 3.072-.962 3.072-2.58zM34.753 33.393c-.797 0-1.314.07-1.62.142V43.88c.306.07.798.07 1.243.07 3.237.024 5.35-1.76 5.35-5.535.024-3.285-1.9-5.022-4.973-5.022z" fill="#ED4C5C"/><path d="M55.886 27.316H54.59v-6.258a.858.858 0 00-.011-.119 1.043 1.043 0 00-.251-.686L43.915 8.362l-.008-.008a1.083 1.083 0 00-.488-.304l-.057-.02c-.08-.02-.161-.03-.243-.03h-25.59a2.12 2.12 0 00-2.118 2.118v17.197h-1.297a3.026 3.026 0 00-3.026 3.027v15.74a3.028 3.028 0 003.026 3.026h1.297v10.776a2.12 2.12 0 002.118 2.118H52.47c1.167 0 2.118-.95 2.118-2.118V49.108h1.297a3.027 3.027 0 003.026-3.026v-15.74a3.027 3.027 0 00-3.026-3.026zM17.53 10.117h24.53v10.835c0 .585.474 1.058 1.06 1.058h9.354v5.305H17.53V10.117zm25.997 28.178c0 3.026-1.102 5.115-2.63 6.405-1.665 1.383-4.197 2.041-7.294 2.041-1.854 0-3.166-.119-4.06-.233V30.977c1.314-.21 3.027-.327 4.834-.327 3.002 0 4.95.54 6.474 1.689 1.643 1.219 2.676 3.166 2.676 5.957zM15.91 46.58V30.977c1.102-.188 2.652-.327 4.832-.327 2.206 0 3.779.423 4.833 1.266 1.008.798 1.687 2.112 1.687 3.66 0 1.55-.515 2.862-1.454 3.753-1.22 1.15-3.026 1.666-5.138 1.666-.469 0-.892-.023-1.219-.07v5.654h-3.54zM52.471 59.31H17.53V49.108H52.47V59.31zM55.54 33.7h-6.078v3.613h5.678v2.91h-5.678v6.356h-3.587V30.767h9.665v2.932z" fill="#ED4C5C"/></svg><svg fill="none" viewBox="0 0 14 14" id="linkedin" xmlns="http://www.w3.org/2000/svg"><path d="M9.333 4.667a3.5 3.5 0 013.5 3.5v4.083H10.5V8.167a1.167 1.167 0 10-2.333 0v4.083H5.833V8.167a3.5 3.5 0 013.5-3.5zM1.167 5.25H3.5v7H1.167v-7zM2.333 3.5a1.167 1.167 0 100-2.333 1.167 1.167 0 000 2.333z" fill="#101010"/></svg><svg fill="none" viewBox="0 0 32 32" id="playstore" xmlns="http://www.w3.org/2000/svg"><path d="M3 3.718v24.563a.27.27 0 00.46.192L16.25 16 3.46 3.526a.27.27 0 00-.46.192zM21.613 10.875L5.576 2.04l-.01-.006c-.276-.15-.538.224-.312.442l12.57 12.02 3.788-3.621zM5.255 29.524c-.228.218.035.592.312.442l.01-.006 16.035-8.835-3.788-3.622L5.255 29.524zM28.086 14.438l-4.478-2.467L19.398 16l4.21 4.027 4.478-2.465c1.218-.673 1.218-2.451 0-3.125z" fill="#fff"/></svg><svg fill="none" viewBox="0 0 66 66" id="shield" xmlns="http://www.w3.org/2000/svg"><path fill-rule="evenodd" clip-rule="evenodd" d="M33.973 3.487l21.901 7.464c.535.186.974.799.96 1.366v31.092c0 .574-.367 1.322-.811 1.67L33.806 62.39a1.32 1.32 0 01-.812.264c-.297 0-.587-.09-.813-.264L9.964 45.078c-.444-.354-.812-1.102-.812-1.669V12.317c0-.567.439-1.186.974-1.366l21.9-7.464c.265-.09.62-.135.974-.135.355 0 .709.045.973.135zM33 57.137l19.207-14.965v-27.56L33 8.063l-19.207 6.548v27.56L33 57.139z" fill="#ED4C5C"/><path fill-rule="evenodd" clip-rule="evenodd" d="M25.968 34.083l-4.995 4.995a.518.518 0 000 .728l2.192 2.192c.2.2.528.2.728 0l4.995-4.995a9.287 9.287 0 0011.511-1.296 9.286 9.286 0 000-13.136 9.286 9.286 0 00-13.135 0 9.288 9.288 0 00-1.296 11.512zM37.48 25.49a5.16 5.16 0 00-7.296 7.296 5.154 5.154 0 007.296 0 5.154 5.154 0 000-7.296z" fill="#ED4C5C"/></svg><svg fill="none" viewBox="0 0 14 14" id="twitter" xmlns="http://www.w3.org/2000/svg"><path d="M13.417 1.75a6.358 6.358 0 01-1.832.893A2.613 2.613 0 007 4.393v.583a6.218 6.218 0 01-5.25-2.643s-2.333 5.25 2.917 7.584a6.79 6.79 0 01-4.084 1.166c5.25 2.917 11.667 0 11.667-6.708 0-.162-.016-.325-.047-.484a4.503 4.503 0 001.214-2.141z" fill="#101010"/></svg><svg fill="none" viewBox="0 0 24 24" id="windows" xmlns="http://www.w3.org/2000/svg"><path d="M0 3.449L9.75 2.1v9.451H0V3.449zm10.949-1.5L24 0v11.4H10.949V1.949zM0 12.6h9.75v9.451L0 20.699V12.6zm10.949 0H24V24l-12.9-1.801" fill="#fff"/></svg></svg>